<svg width="390" height="844" viewBox="0 0 390 844" fill="none" xmlns="http://www.w3.org/2000/svg">
<g clip-path="url(#clip0_1729_1056)">
<rect width="390" height="844" fill="white"/>
<g clip-path="url(#clip1_1729_1056)">
<path d="M461 -6H-6V845H461V-6Z" fill="#F2F4F7"/>
<mask id="mask0_1729_1056" style="mask-type:luminance" maskUnits="userSpaceOnUse" x="-7" y="-7" width="469" height="657">
<path d="M461.142 -6.49194H-6.4917V649.5H461.142V-6.49194Z" fill="white"/>
</mask>
<g mask="url(#mask0_1729_1056)">
<path d="M-17.9634 48.0022L-17.6579 46.5969C83.3414 78.6976 358.882 82.6462 469.1 26.533L479.968 75.2378C360.433 116.931 80.294 105.498 -17.9634 48.0022Z" fill="#EAECF0"/>
</g>
<mask id="mask1_1729_1056" style="mask-type:luminance" maskUnits="userSpaceOnUse" x="-7" y="-7" width="469" height="657">
<path d="M461.142 -6.49194H-6.4917V649.5H461.142V-6.49194Z" fill="white"/>
</mask>
<g mask="url(#mask1_1729_1056)">
<path d="M-46.3828 245.747L-46.1537 244.326C67.9212 273.104 376.273 278.183 493.991 218.221L506.272 256.279C377.174 302.104 66.5388 300.08 -46.3828 245.747Z" fill="#EAECF0"/>
</g>
<mask id="mask2_1729_1056" style="mask-type:luminance" maskUnits="userSpaceOnUse" x="-7" y="-7" width="469" height="657">
<path d="M461.142 -6.49194H-6.4917V649.5H461.142V-6.49194Z" fill="white"/>
</mask>
<g mask="url(#mask2_1729_1056)">
<path d="M-53.6919 477.356L-53.3864 475.951C59.0617 510.526 366.757 531.362 487.385 477.494L497.703 516.132C366.428 555.298 56.3045 537.388 -53.6919 477.356Z" fill="#EAECF0"/>
</g>
<mask id="mask3_1729_1056" style="mask-type:luminance" maskUnits="userSpaceOnUse" x="-7" y="-7" width="469" height="657">
<path d="M461.142 -6.49194H-6.4917V649.5H461.142V-6.49194Z" fill="white"/>
</mask>
<g mask="url(#mask3_1729_1056)">
<path d="M560.362 191.81L560.308 190.367C420.9 205.756 60.8336 165.163 -69.2114 91.9564L-95.1792 138.294C50.5076 198.776 418.371 232.725 560.362 191.81Z" fill="#EAECF0"/>
</g>
<mask id="mask4_1729_1056" style="mask-type:luminance" maskUnits="userSpaceOnUse" x="-7" y="-7" width="469" height="657">
<path d="M461.142 -6.49194H-6.4917V649.5H461.142V-6.49194Z" fill="white"/>
</mask>
<g mask="url(#mask4_1729_1056)">
<path d="M505.99 415.064L505.875 413.628C387.561 433.211 78.1784 403.547 -36.3394 334.373L-56.3193 381.436C70.9532 437.427 386.683 460.21 505.99 415.064Z" fill="#EAECF0"/>
</g>
<mask id="mask5_1729_1056" style="mask-type:luminance" maskUnits="userSpaceOnUse" x="-7" y="121" width="469" height="657">
<path d="M461.141 121.508H-6.49219V777.5H461.141V121.508Z" fill="white"/>
</mask>
<g mask="url(#mask5_1729_1056)">
<path d="M96.2409 286.312C94.3926 286.312 92.6283 286.632 90.971 287.19C87.2286 281.485 80.7748 277.712 73.4427 277.712C71.3959 277.712 69.4254 278.01 67.5542 278.56C64.2165 267.363 53.8524 259.198 41.5711 259.198C30.1759 259.198 20.4227 266.232 16.413 276.199C13.335 274.703 9.87519 273.862 6.22443 273.862C-2.50532 273.862 -10.1123 278.666 -14.1068 285.769C-16.6501 283.333 -20.087 281.828 -23.8905 281.828C-31.7038 281.828 -38.043 288.168 -38.043 295.981L110.554 295.461C107.713 290.482 102.374 286.312 96.2409 286.312Z" fill="#98A2B3"/>
</g>
<mask id="mask6_1729_1056" style="mask-type:luminance" maskUnits="userSpaceOnUse" x="-71" y="113" width="469" height="657">
<path d="M397.141 113.508H-70.4922V769.5H397.141V113.508Z" fill="white"/>
</mask>
<g mask="url(#mask6_1729_1056)">
<path d="M411.569 259.47C410.316 259.47 409.117 259.684 407.987 260.065C405.443 256.193 401.059 253.627 396.08 253.627C394.69 253.627 393.345 253.833 392.078 254.2C389.809 246.593 382.767 241.04 374.419 241.04C366.675 241.04 360.053 245.821 357.327 252.588C355.234 251.573 352.889 251 350.407 251C344.472 251 339.309 254.261 336.59 259.088C334.864 257.431 332.527 256.407 329.946 256.407C324.638 256.407 320.33 260.715 320.33 266.023L421.284 265.671C419.367 262.296 415.731 259.47 411.569 259.47Z" fill="#98A2B3"/>
</g>
<mask id="mask7_1729_1056" style="mask-type:luminance" maskUnits="userSpaceOnUse" x="-7" y="153" width="469" height="657">
<path d="M461.141 153.508H-6.49219V809.5H461.141V153.508Z" fill="white"/>
</mask>
<g mask="url(#mask7_1729_1056)">
<path d="M193.956 198.799C193.116 198.799 192.314 198.944 191.558 199.196C189.855 196.599 186.922 194.888 183.584 194.888C182.652 194.888 181.759 195.026 180.903 195.27C179.383 190.176 174.671 186.464 169.088 186.464C163.902 186.464 159.472 189.664 157.647 194.193C156.249 193.514 154.676 193.132 153.011 193.132C149.039 193.132 145.58 195.316 143.762 198.547C142.609 197.439 141.043 196.752 139.309 196.752C135.758 196.752 132.871 199.631 132.871 203.191L200.448 202.954C199.172 200.693 196.744 198.799 193.956 198.799Z" fill="#98A2B3"/>
</g>
<path d="M404.184 340.257C402.274 340.257 400.449 340.585 398.731 341.166C394.858 335.262 388.183 331.367 380.599 331.367C378.483 331.367 376.444 331.672 374.504 332.237C371.052 320.651 360.329 312.204 347.62 312.204C335.828 312.204 325.746 319.482 321.591 329.786C318.406 328.235 314.832 327.364 311.051 327.364C302.016 327.364 294.149 332.329 290.017 339.676C287.39 337.156 283.831 335.598 279.898 335.598C271.809 335.598 265.256 342.151 265.256 350.239L418.978 349.697C416.053 344.564 410.523 340.257 404.184 340.257Z" fill="#98A2B3"/>
</g>
<g clip-path="url(#clip2_1729_1056)">
<g opacity="0.4">
<path d="M0 573.586C2.26483 571.387 3.90008 571.534 6.23032 573.635C7.24417 574.551 8.65867 575.254 9.95052 575.393C13.0493 575.728 16.2708 575.23 19.2715 575.957C20.8904 576.35 22.1904 578.508 23.5722 579.939C24.3489 580.749 25.003 581.705 25.7225 582.588C25.837 582.727 26.0905 582.809 26.1232 582.956C27.3578 588.876 32.4025 590.143 36.09 593.013C39.426 595.597 42.0751 598.785 44.2173 602.604C44.8305 603.699 45.9752 604.427 46.7682 605.212C47.2016 604.288 47.3815 603.315 47.8802 603.037C48.2972 602.8 49.2293 603.176 49.679 603.609C50.8809 604.77 51.9847 605.441 53.7344 604.901C55.4678 604.362 55.9338 605.621 55.2716 609.038C57.2584 609.398 59.932 609.038 61.0277 610.322C62.1151 611.606 61.6245 614.557 61.8371 616.871C66.285 617.722 66.5466 617.959 65.9907 621.695C66.9473 619.414 67.6668 617.713 68.6152 615.449C69.6046 616.683 70.1442 617.362 70.9128 618.327C69.997 618.597 69.4574 618.752 69.0486 618.866C70.4794 620.42 71.943 622.006 73.7499 623.968C72.1065 624.729 71.2807 625.105 70.0379 625.677C71.1744 626.249 71.9103 626.626 72.6053 626.969C72.5071 627.394 72.5153 627.631 72.4172 627.762C71.5996 628.85 70.7574 629.921 69.9234 630.992C71.1499 631.777 72.3109 632.774 73.6273 633.273C74.8456 633.731 76.2273 633.649 77.8135 633.845C78.0425 635.358 78.3123 636.985 78.5249 638.62C78.7702 640.46 78.672 642.455 81.035 642.864C81.1985 642.888 81.0595 645.178 81.0595 646.151H87.4125C88.7779 648.391 89.9471 650.296 91.1081 652.201C91.4597 652.144 91.8031 652.086 92.1547 652.037C91.6805 653.378 91.1981 654.727 90.7239 656.077C90.5358 656.624 90.2006 657.18 90.2088 657.728C90.2496 661.211 90.3559 664.686 90.4786 668.169C90.5195 669.347 90.8383 670.557 90.7075 671.701C90.4295 674.04 89.9226 676.337 89.4157 679.224C86.9628 677.58 84.608 676.027 81.7545 677.392C81.3212 677.596 80.3645 676.444 79.6287 675.904C79.4978 676.239 79.3507 676.419 79.3916 676.542C79.6614 677.515 79.9639 678.471 80.2582 679.428C79.3752 678.995 78.2714 678.782 77.6337 678.071C76.0229 676.272 74.7393 674.089 73.0877 672.355C71.8939 671.104 70.2587 670.385 68.9014 669.298C66.0234 666.975 63.2025 664.563 60.3654 662.184C60.1528 662.004 59.7849 661.857 59.7522 661.645C58.8691 656.093 52.7287 655.373 51.2979 650.141C50.8237 648.399 48.0274 647.23 47.8802 645.619C47.4224 640.754 44.4053 637.41 42.6965 633.355C40.8977 629.078 38.8782 624.549 34.3567 622.611C33.6699 622.317 33.0403 621.352 32.7623 620.534C32.1 618.597 31.6749 616.569 31.1516 614.582C29.7453 609.202 27.2842 604.975 21.8715 603.814C21.3155 603.691 20.4815 602.775 20.4815 602.228C20.4815 597.003 15.8456 595.147 14.1449 591.19C14.0059 590.854 13.6952 590.495 13.3927 590.388C6.958 588.107 3.60573 582.188 0 576.562V573.586Z" fill="#D0D5DD"/>
<path d="M175.454 662.487C175.324 661.162 175.225 660.214 175.087 658.775C171.031 660.402 167.213 661.931 163.484 663.419C162.217 661.179 164.351 657.867 161.424 656.935C159.511 656.322 157.385 656.543 155.055 656.371C154.973 655.987 154.809 655.177 154.768 654.965C153.092 654.343 151.776 653.853 150.37 653.338C148.677 654.572 147.541 657.867 144.115 655.815C143.354 655.357 141.572 657.025 139.822 657.941C139.675 656.036 139.544 654.27 139.364 652.029C136.773 652.43 134.205 652.945 131.621 653.158C130.755 653.231 129.831 652.561 129.046 651.629C128.261 651.939 127.476 652.242 126.577 652.594C126.078 649.707 125.645 647.025 125.138 644.36C124.982 643.551 124.606 642.79 124.402 641.981C124.271 641.482 124.058 640.803 124.255 640.444C125.358 638.391 124.917 636.748 123.233 635.154C122.35 635.742 121.409 636.372 120.485 636.993C119.79 635.154 119.136 633.42 118.474 631.695C118.188 630.951 117.885 630.207 117.583 629.471C117.509 629.291 117.329 629.087 117.362 628.94C118.597 622.995 112.464 617.493 116.52 611.361C117.485 609.897 118.172 608.196 119.194 606.806C119.39 606.537 121.09 606.97 121.246 607.436C122.595 611.5 125.98 613.274 128.686 615.759C129.25 616.275 130.575 615.898 131.515 615.735C133.052 615.473 134.679 614.484 136.078 614.811C139.373 615.58 141.686 614.778 143.281 611.377C143.992 609.856 149.029 609.292 150.435 610.388C152.684 612.137 154.916 613.756 157.655 611.246C158.162 610.788 159.192 611.042 159.985 610.985C163.493 610.707 164.605 608.998 164.915 604.942C165.013 603.683 166.649 602.563 167.777 601.132C167.033 599.064 166.796 597.134 170.05 596.496C170.81 596.349 171.195 593.495 171.636 591.844C171.808 591.214 171.62 590.47 171.669 589.783C171.996 585.033 173.541 584.256 177.572 583.88C179.036 583.749 180.516 583.946 181.987 583.929C186.059 583.872 189.019 586.17 190.809 591.1C189.272 591.247 187.841 591.394 186.002 591.574C186.721 592.097 187.163 592.416 187.809 592.89C187.547 593.512 187.277 594.166 187.204 594.329C189.182 597.412 190.998 600.241 192.854 603.135C192.854 603.242 192.911 603.495 192.821 603.61C190.114 607.06 190.679 606.218 193.835 609.308C195.985 611.418 198.438 613.135 200.85 615.097C199.395 617.877 197.171 617.272 195.208 616.986C191.872 616.503 189.886 617.403 188.659 620.96C187.833 623.363 187.147 625.882 188.226 628.629C188.536 629.414 187.768 631.139 187.048 631.948C184.669 634.638 181.946 636.977 179.665 639.765C179.027 640.542 178.905 643.003 179.485 643.632C181.39 645.717 179.78 646.821 179.117 648.522C178.3 650.599 177.956 652.961 177.727 655.243C177.474 657.761 178.995 660.819 175.414 662.511L175.454 662.487Z" fill="#D0D5DD"/>
<path d="M365.659 692.338C365.062 690.826 364.604 689.665 364.106 688.397C364.76 688.127 365.447 687.849 366.297 687.498C365.013 685.765 363.811 684.268 362.748 682.649C361.759 681.137 360.59 679.624 360.075 677.907C358.391 672.249 353.885 671.693 349.74 670.303C347.802 669.657 346.02 668.472 344.107 667.744C342.136 667 340.051 666.616 338.064 665.896C336.004 665.16 333.968 664.302 331.981 663.329C330.084 662.397 328.261 661.268 326.421 660.205C325.546 659.707 324.663 659.216 323.829 658.644C322.709 657.875 322.006 657.744 321.556 659.519C320.878 662.192 318.785 663.664 317.059 662.511C315.531 661.481 314.697 659.715 315.956 657.573C316.16 657.221 316.046 656.248 315.759 655.995C313.887 654.31 311.933 652.741 309.317 650.566C309.169 649.168 310.576 648.644 312.301 649.053C314.468 649.568 316.332 649.871 317.861 647.418C318.204 646.862 319.831 646.805 320.624 647.173C323.29 648.399 324.009 648.162 324.982 645.464C321.131 645.464 317.133 645.341 313.143 645.505C310.666 645.603 309.137 644 308.679 641.907C308.057 639.07 306.389 638.538 304.427 638.522C300.838 638.489 299.031 637.206 297.911 633.379C300.691 631.973 301.623 632.447 301.811 635.579C302.146 635.243 302.604 634.998 302.587 634.777C302.424 631.196 304.852 631.204 306.978 630.738C307.477 630.632 308.033 630.354 308.368 629.953C311.72 625.947 315.563 626.789 319.038 629.193C320.943 630.509 322.685 630.877 324.729 630.828C326.282 630.787 327.648 630.926 327.035 633.453C326.904 633.976 327.721 634.736 327.958 635.448C328.22 636.225 328.711 637.328 328.433 637.835C326.143 641.989 328.089 645.447 329.626 649.029C330.06 648.293 330.452 647.622 330.845 646.96C331.294 647.769 331.76 648.562 332.186 649.396C333.052 651.105 333.731 652.986 334.835 654.482C335.293 655.104 336.854 655.373 337.533 654.989C339.135 654.073 340.722 652.88 341.907 651.408C343.371 649.585 344.401 647.336 345.693 645.325C345.963 644.9 346.51 644.54 346.976 644.442C348.832 644.066 350.713 643.804 352.585 643.501C352.381 643.183 352.168 642.872 351.964 642.553C352.536 641.694 352.97 640.64 353.706 640.018C354.678 639.192 355.848 638.604 356.992 638.081C357.606 637.803 358.456 637.574 359.012 637.827C362.585 639.479 366.24 641.008 369.608 643.084C372.862 645.088 376.37 645.562 379.861 646.42C382.331 647.025 384.759 647.859 387.359 648.636V651.498C393.704 678.079 387.384 688.16 387.335 706.491C387.335 707.734 386.828 708.977 386.55 710.212C385.339 709.566 383.925 709.173 382.96 708.217C380.646 705.935 378.586 703.352 376.337 700.989C375.847 700.474 374.988 700.196 374.293 700.163C372.691 700.098 371.088 700.253 369.478 700.335C369.306 700.343 369.069 700.4 368.987 700.531C366.354 704.611 362.577 701.978 359.355 702.583C358.505 702.738 357.646 702.82 356.788 702.943C356.118 698.282 360.426 692.714 365.659 692.322V692.338Z" fill="#D0D5DD"/>
<path d="M210.915 615.073C212.615 617.419 213.866 616.446 214.937 614.451C216.254 611.998 218.78 610.903 220.522 612.832C222.37 614.876 224.455 613.928 226.352 614.615C228.093 615.244 229.916 615.58 231.707 616.054C232.042 616.144 232.525 616.487 232.672 616.348C235.19 614.059 237.676 615.776 240.235 616.176C241.371 616.356 242.859 615.735 243.832 614.942C245.991 613.192 247.806 610.911 250.014 609.259C250.7 608.744 252.197 609.562 254.053 609.897C251.461 613.2 249.629 615.637 247.692 617.975C246.719 619.153 245.697 620.829 244.478 621.107C241.739 621.728 238.526 622.603 236.139 621.573C232.664 620.076 229.32 621.172 226.025 620.502C222.084 619.7 218.143 622.243 214.185 620.126C213.482 619.749 211.602 620.894 210.907 621.892C208.871 624.835 208.928 628.334 210.481 631.392C211.528 633.453 213.31 635.203 215.076 636.601C216.197 637.492 217.668 637.77 218.707 635.472C219.598 633.494 220.718 631.63 223.825 632.3C226.27 632.823 229.099 630.967 231.781 630.305C233.301 629.929 234.961 629.422 236.425 629.733C238.093 630.084 238.125 631.908 237.373 633.314C237.177 633.69 235.926 633.257 235.198 633.42C234.045 633.682 232.745 633.845 231.846 634.573C230.571 635.603 229.753 637.32 228.477 638.35C226.262 640.133 223.841 641.605 221.928 642.921C224.152 646.134 226.401 649.348 228.6 652.593C228.894 653.027 229.303 653.91 229.148 654.098C226.409 657.63 230.055 659.208 231.02 661.546C231.184 661.947 232.206 662.102 232.811 662.053C233.808 661.972 234.798 661.628 235.787 661.399C235.836 661.939 236.081 662.847 235.901 662.969C235.108 663.492 234.193 663.787 233.179 664.236C233.522 664.465 234.045 664.621 234.266 664.997C234.994 666.231 237.169 667.27 234.536 669.085C234.021 669.445 234.74 672.004 234.888 673.549C235.133 673.541 235.378 673.525 235.615 673.517C234.61 674.727 233.71 676.1 232.533 677.057C232.083 677.417 230.857 677.041 230.235 676.583C229.369 675.929 228.739 674.882 227.668 673.598C227.742 672.535 227.374 670.328 228.15 668.897C228.796 667.703 230.791 667.425 232.557 666.567C230.521 664.817 228.567 666.403 226.572 666.689C226.507 667.695 226.45 668.562 226.352 670.164C224.504 669.567 222.149 669.567 221.307 668.308C220.465 667.049 221.119 664.539 221.119 662.315C220.293 661.579 218.985 660.451 217.726 659.265C216.213 657.843 215.109 656.526 216.744 654.065C217.358 653.141 216.63 651.122 216.507 649.601C215.354 649.871 214.144 650.002 213.057 650.468C212.28 650.803 211.667 651.612 211.757 652.34C211.855 655.03 212.076 657.728 212.019 660.418C211.937 664.343 211.52 668.267 211.528 672.192C211.528 673.639 212.329 675.078 212.714 676.354C210.833 676.697 209.181 677.196 207.522 677.245C206.336 677.278 204.815 677.106 204.039 676.305C203.36 675.61 203.188 673.852 203.36 672.674C203.761 669.976 204.905 667.352 204.987 664.67C205.069 662.152 204.169 659.592 203.646 656.723C202.158 656.943 200.801 657.148 198.814 657.442C198.642 654.727 198.462 652.078 198.299 649.421C198.291 649.249 198.397 648.922 198.479 648.906C201.455 648.424 200.49 645.21 201.61 643.526C202.64 641.973 202.281 640.517 202.559 639.005C202.992 636.682 203.425 634.017 204.734 632.333C206.565 629.978 206.966 627.247 206.851 624.729C206.704 621.466 208.241 619.471 209.656 617.198C210.048 616.577 210.4 615.923 210.882 615.089L210.915 615.073Z" fill="#D0D5DD"/>
<path d="M84.1991 687.809C84.7306 687.122 84.984 686.468 85.3765 686.337C87.3551 685.683 88.7533 684.105 89.3501 682.003C89.8652 680.196 90.7319 678.717 92.8496 679.322C93.8389 679.608 94.8609 679.755 95.8666 679.951C97.3384 680.229 99.0063 681.824 100.069 679.068C100.143 678.864 101.835 679.232 102.669 679.624C104.771 680.605 106.856 682.707 108.867 682.6C111.328 682.469 111.647 684.35 112.849 685.47C113.642 686.214 114.476 687.334 115.375 687.441C119.382 687.915 123.412 688.176 127.443 688.291C128.147 688.307 129.16 687.432 129.536 686.664C131.319 683.009 131.728 682.87 134.328 685.601C134.622 685.912 135.064 686.149 135.472 686.222C138.817 686.827 142.169 687.343 145.505 687.997C146.11 688.119 146.641 688.741 147.075 689.035C151.204 687.318 155.316 687.784 160.206 688.454C156.191 692.06 152.324 692.199 148.35 691.643C148.522 694.685 150.713 696.165 153.387 695.862C155.66 695.601 158.031 695.658 160.271 696.107C161.285 696.312 162.094 697.8 163.002 698.708C162.896 699.141 162.781 699.582 162.675 700.016C164.359 699.762 166.093 699.092 167.711 699.353C169.576 699.648 171.342 700.76 173.149 701.52C173.108 701.855 173.075 702.191 173.034 702.518C172.176 703.155 171.285 703.736 170.467 704.431C169.077 705.608 168.022 705.706 166.559 704.202C165.438 703.049 163.656 702.698 162.168 701.994C162.013 702.207 161.849 702.411 161.694 702.624C162.405 703.564 163.116 704.504 164.073 705.78C163.321 705.935 162.634 706.311 162.103 706.14C159.879 705.396 157.663 704.586 155.504 703.613C153.125 702.542 150.958 701.021 148.227 702.943C147.426 703.507 145.856 702.665 144.638 702.542C140.836 702.166 137.018 701.953 133.232 701.414C131.425 701.152 129.594 700.506 127.926 699.664C123.576 697.465 119.12 695.993 114.296 696.263C111.884 696.394 109.423 696.86 107.068 696.484C104.672 696.107 102.416 694.799 100.053 694.072C99.1371 693.794 98.0987 694.047 97.1258 693.982C94.0678 693.761 93.6182 692.976 94.8446 689.231C91.3697 688.773 88.0256 688.332 84.1909 687.825L84.1991 687.809Z" fill="#D0D5DD"/>
<path d="M270.087 703.18C267.56 704.733 265.181 706.9 262.475 707.726C256.22 709.631 250.979 712.861 246.425 718.142C244.749 720.088 241.29 720.17 238.6 720.914C238.338 720.988 237.3 719.524 237.439 719.107C239.001 714.471 240.816 710.285 246.114 709.402C247.757 709.124 249.916 708.061 250.938 705.388C251.42 704.137 254.037 703.654 255.77 703.286C259.433 702.518 263.137 701.994 266.841 701.504C267.806 701.373 268.828 701.725 269.817 701.855C269.907 702.297 269.997 702.738 270.087 703.172V703.18Z" fill="#D0D5DD"/>
<path d="M278.712 632.455C275.581 631.229 272.915 626.977 272.85 624.14C272.817 622.734 272.531 621.131 271.853 619.97C269.195 615.391 271.436 607.011 274.731 604.247C275.025 603.994 275.524 604.035 275.704 603.986C275.9 606.25 276.48 608.425 276.145 610.412C275.843 612.195 274.534 613.764 273.406 615.939C273.79 615.882 274.698 616.029 274.992 615.629C275.785 614.533 276.096 612.914 277.004 612.039C278.214 610.878 279.824 610.232 281.917 608.973C281.917 611.639 282.384 613.462 281.787 614.607C281.182 615.768 279.53 616.258 278.263 617.092C278.933 619.128 282.98 618.237 281.19 622.104C279.44 621.63 277.551 621.115 275.589 620.575C274.436 625.113 276.897 628.449 278.704 632.447L278.712 632.455Z" fill="#D0D5DD"/>
<path d="M241.298 702.321C240.586 702.73 239.826 703.049 239.18 703.556C237.954 704.513 236.94 705.134 235.55 703.572C234.724 702.649 233.588 702.493 232.443 703.989C231.593 705.11 229.982 705.747 228.6 706.083C225.558 706.827 222.46 707.325 219.369 707.751C218.192 707.914 216.965 707.62 215.763 707.489C213.49 707.244 211.217 707.047 208.969 706.671C208.176 706.54 207.448 705.952 206.696 705.567C207.137 704.603 207.35 703.335 208.037 702.73C212.002 699.239 215.845 701.594 219.704 703.221C220.309 703.474 221.061 703.294 221.748 703.335C223.384 703.433 225.019 703.63 226.654 703.621C227.553 703.621 228.494 703.401 229.36 703.082C231.339 702.346 233.252 701.316 235.272 700.784C235.918 700.613 236.809 701.643 237.365 701.978C238.673 701.455 239.891 700.964 241.118 700.474C241.167 701.103 241.224 701.733 241.273 702.362L241.306 702.305L241.298 702.321Z" fill="#D0D5DD"/>
<path d="M299.415 660.663C296.815 659.192 294.428 657.802 291.999 656.485C291.321 656.117 290.56 655.79 289.824 655.741C287.797 655.619 285.769 655.651 283.741 655.619C283.185 655.61 282.539 655.382 282.098 655.619C279.751 656.902 276.44 654.858 276.489 651.956C276.497 651.416 277.429 650.435 277.936 650.435C280.422 650.419 283.3 651.612 285.311 650.598C288.884 648.808 291.411 652.283 294.648 651.694C297.273 651.212 300.175 656.592 299.407 660.655L299.415 660.663Z" fill="#D0D5DD"/>
<path d="M181.194 704.3C181.93 703.744 182.609 703.041 183.418 702.681C185.242 701.855 187.016 701.389 188.774 703.196C189.796 704.251 190.916 706.246 192.78 704.169C191.366 703.139 189.927 702.092 188.414 700.997C191.12 698.536 192.429 698.74 194.235 701.569C197.833 699.885 199.844 700.931 202.027 706.246C199.264 704.66 197.424 708.315 194.424 706.303C193.205 705.494 190.474 707.701 188.373 708.249C186.141 708.838 183.835 709.091 181.276 709.549V704.21L181.211 704.3H181.194Z" fill="#D0D5DD"/>
<path d="M97.7554 652.741C97.4856 652.88 96.8642 653.509 96.4799 653.354C95.188 652.847 94.0107 652.013 92.7515 651.408C91.4678 650.795 90.4622 650.41 90.1188 648.358C89.7999 646.453 89.3093 643.526 86.1369 644.237C85.4746 644.384 84.608 643.379 83.5205 642.708C84.935 640.975 85.9897 639.626 87.1426 638.383C87.2325 638.285 88.0175 638.988 88.459 639.307C88.7533 638.955 89.1948 637.974 89.6282 637.982C90.3232 637.991 91.1163 638.53 91.6641 639.086C92.0647 639.495 92.1301 640.305 92.3427 640.942C93.2339 643.575 93.144 646.747 96.4145 647.941C97.1912 648.227 97.273 650.852 97.7636 652.732L97.7554 652.741Z" fill="#D0D5DD"/>
<path d="M208.437 711.037C210.293 712.574 212.558 714.447 214.823 716.319C216.777 717.93 215.575 719.042 214.218 719.761C212.043 720.922 210.187 720.702 208.356 718.396C207.268 717.022 205.249 716.524 203.597 715.747C202.191 715.085 200.711 714.594 199.264 714.03C199.28 713.498 199.296 712.967 199.321 712.435C200.711 712.1 202.093 711.667 203.491 711.454C205.003 711.225 206.541 711.185 208.437 711.037Z" fill="#D0D5DD"/>
<path d="M264.469 651.482C266.121 652.855 267.871 654.114 269.334 655.701C269.645 656.036 269.163 658.047 268.558 658.505C265.328 660.958 261.51 660.067 259.278 656.584C258.035 654.646 258.566 653.297 260.659 652.888C261.78 652.667 262.883 652.299 263.995 651.988C264.151 651.817 264.306 651.645 264.469 651.473V651.482Z" fill="#D0D5DD"/>
<path d="M244.519 643.371C244.953 639.078 245.73 638.694 249.196 639.544C252.32 640.313 255.574 640.452 258.771 640.811C259.695 640.918 260.635 640.828 261.559 640.828C261.575 641.122 261.591 641.417 261.608 641.703C255.974 642.251 250.349 642.798 244.511 643.371H244.519Z" fill="#D0D5DD"/>
<path d="M181.26 704.21C178.578 707.783 176.567 708.347 173.926 706.63C174.465 705.396 174.997 704.259 175.463 703.09C176.231 701.144 177.482 700.253 179.428 700.547C181.677 700.882 181.244 702.689 181.194 704.308L181.268 704.218L181.26 704.21Z" fill="#D0D5DD"/>
<path d="M104.91 654.36C103.83 651.449 104.288 647.516 105.735 647.663C107.379 647.827 109.128 648.963 110.388 650.214C110.707 650.533 109.684 653.378 108.695 654.212C107.869 654.907 106.201 654.351 104.901 654.351L104.91 654.36Z" fill="#D0D5DD"/>
<path d="M16.0498 611.565C18.2165 609.325 19.3367 610.625 20.5958 612.317C21.8141 613.953 24.1607 614.86 23.1795 617.705C22.9342 618.425 22.2801 618.965 21.8059 619.586C21.348 619.12 20.8493 618.695 20.4486 618.18C19.6228 617.109 18.8134 616.005 18.0612 614.868C17.3335 613.773 16.6876 612.612 16.0498 611.565Z" fill="#D0D5DD"/>
<path d="M34.3975 641.065C30.8653 641.457 28.4533 637.713 29.0829 633.109C31.7892 632.267 32.4597 633.257 34.3975 641.065Z" fill="#D0D5DD"/>
<path d="M332.316 679.575C332.316 679.87 332.398 680.197 332.3 680.45C331.932 681.472 331.515 682.478 331.114 683.492C330.141 682.306 329.16 681.121 328.204 679.91C328.122 679.812 328.187 679.502 328.269 679.346C329.103 677.809 329.953 676.28 330.795 674.751C331.482 676.256 332.177 677.76 332.864 679.265C332.684 679.371 332.496 679.469 332.316 679.575Z" fill="#D0D5DD"/>
<path d="M301.541 699.067C301.009 694.955 303.503 692.813 305.523 690.442C305.645 690.303 306.962 690.957 306.962 691.226C306.945 692.469 307.019 694.039 306.398 694.889C305.155 696.582 304.329 699.198 301.549 699.067H301.541Z" fill="#D0D5DD"/>
<path d="M304.092 626.528C303.838 627.026 303.715 627.558 303.405 627.828C301.876 629.169 297.534 628.858 296.201 627.198C295.866 626.781 295.858 625.44 296.185 625.097C297.044 624.197 298.589 626.503 299.603 624.369C299.734 624.091 302.121 625.113 303.437 625.604C303.699 625.702 303.846 626.168 304.092 626.528Z" fill="#D0D5DD"/>
<path d="M266.62 696.664C263.031 697.563 259.94 698.348 256.392 699.239C257.168 696.803 257.528 695.004 260.038 695.519C261.886 695.903 263.783 693.311 265.696 695.478C265.819 695.617 265.925 695.764 266.62 696.664Z" fill="#D0D5DD"/>
<path d="M338.097 638.465C342.234 639.127 346.371 639.789 351.162 640.558C345.995 643.403 342.005 641.008 337.909 639.757C337.974 639.323 338.031 638.898 338.097 638.465Z" fill="#D0D5DD"/>
<path d="M235.444 636.674C234.626 637.713 233.956 638.563 233.277 639.422C233.015 639.397 232.762 639.373 232.5 639.348C232.443 638.261 232.01 636.903 232.435 636.167C232.852 635.44 234.127 635.178 235.068 635.006C235.697 634.892 236.449 635.186 237.063 635.505C237.676 635.832 238.363 636.315 238.673 636.944C238.845 637.296 238.33 638.073 238.117 638.653C237.463 638.342 236.776 638.089 236.155 637.713C235.877 637.541 235.73 637.116 235.444 636.674Z" fill="#D0D5DD"/>
<path d="M278.189 606.128C276.93 603.896 277.936 602.228 279.105 600.756C279.514 600.241 280.667 599.865 281.108 600.151C281.607 600.47 282.032 601.713 281.868 602.358C281.37 604.313 280.814 606.455 278.189 606.128Z" fill="#D0D5DD"/>
<path d="M327.738 681.717C328.571 682.96 329.7 684.105 330.1 685.503C330.297 686.19 329.316 687.76 328.539 688.177C328.024 688.455 326.258 687.449 326.225 686.926C326.127 685.348 326.609 683.729 326.863 682.126C327.149 681.987 327.443 681.856 327.729 681.717H327.738Z" fill="#D0D5DD"/>
<path d="M251.453 699.713C251.461 702.518 250.096 703.246 245.452 703.123C245.075 699.664 245.116 699.623 248.019 699.705C249.164 699.738 250.308 699.705 251.453 699.705V699.713Z" fill="#D0D5DD"/>
<path d="M277.094 640.035C275.712 640.239 274.33 640.558 272.94 640.599C272.163 640.623 271.37 640.182 270.585 639.953C270.831 639.209 271.002 638.416 271.346 637.721C271.632 637.132 272.123 636.666 272.719 635.881C274.428 637.132 275.965 638.252 277.503 639.372C277.364 639.593 277.233 639.806 277.094 640.026V640.035Z" fill="#D0D5DD"/>
<path d="M10.261 603.372C8.24967 602.015 6.31189 600.756 4.45588 599.374C4.25965 599.227 4.31688 598.115 4.57035 597.878C4.94645 597.535 5.78861 597.281 6.11566 597.518C7.71003 598.687 9.22264 600.004 10.7107 601.345C10.956 601.565 11.0378 602.195 10.9805 602.604C10.9478 602.874 10.539 603.086 10.261 603.364V603.372Z" fill="#D0D5DD"/>
<path d="M341.596 635.832C341.277 633.943 341.016 632.431 340.762 630.91C341.024 630.746 341.286 630.583 341.547 630.419C343.101 631.818 344.646 633.208 346.199 634.606C346.216 634.876 346.24 635.145 346.257 635.423C344.785 635.554 343.305 635.685 341.596 635.84V635.832Z" fill="#D0D5DD"/>
<path d="M289.44 641.539C291.827 640.795 293.536 640.264 296.038 639.487C295.638 641.081 295.67 642.389 295.114 642.888C293.348 644.466 291.713 643.452 289.44 641.547V641.539Z" fill="#D0D5DD"/>
<path d="M40.44 646.633C42.0426 648.693 43.3017 650.255 44.4873 651.89C44.6999 652.185 44.7816 653.043 44.6426 653.141C44.2665 653.411 43.6697 653.624 43.269 653.477C41.8872 652.961 40.0885 649.135 40.4319 646.633H40.44Z" fill="#D0D5DD"/>
<path d="M231.233 725.926C233.367 724.193 234.961 722.893 236.629 721.536C237.668 724.52 235.64 726.401 231.233 725.926Z" fill="#D0D5DD"/>
<path d="M274.036 629.798C272.826 630.771 272.188 631.286 271.542 631.801C270.962 630.796 270.242 629.847 269.907 628.752C269.825 628.49 271.191 627.182 271.624 627.329C272.384 627.582 272.932 628.596 274.036 629.798Z" fill="#D0D5DD"/>
<path d="M62.1152 615.032C62.9737 614.206 63.7096 613.168 63.9712 613.298C65.3122 613.977 66.5222 614.958 67.7814 615.833C67.6179 616.234 67.4625 616.634 67.299 617.027C65.7618 616.438 64.2247 615.841 62.1152 615.032Z" fill="#D0D5DD"/>
<path d="M279.784 658.415C278.434 658.906 277.298 659.445 276.104 659.69C275.712 659.772 275.197 659.102 274.739 658.775C275.025 658.358 275.278 657.622 275.614 657.573C276.922 657.377 278.426 655.66 279.784 658.407V658.415Z" fill="#D0D5DD"/>
<path d="M265.206 581.542C267.307 584.215 267.209 585.998 264.731 588.671C264.903 586.031 265.034 584.052 265.206 581.542Z" fill="#D0D5DD"/>
<path d="M225.313 675.479C224.7 674.817 223.768 674.261 223.572 673.468C223.4 672.797 224.07 671.865 224.365 671.047C224.684 671.056 225.003 671.072 225.313 671.08C225.567 672.38 225.828 673.68 226.082 674.98C225.82 675.144 225.567 675.307 225.313 675.471V675.479Z" fill="#D0D5DD"/>
<path d="M241.265 702.379C242.32 701.79 243.366 701.201 244.421 700.604C244.568 700.752 244.707 700.891 244.855 701.038C244.388 702.166 243.931 703.294 243.219 705.02C242.377 703.818 241.846 703.057 241.314 702.313L241.273 702.379H241.265Z" fill="#D0D5DD"/>
</g>
</g>
</g>
<defs>
<clipPath id="clip0_1729_1056">
<rect width="390" height="844" fill="white"/>
</clipPath>
<clipPath id="clip1_1729_1056">
<rect width="455" height="845" fill="white"/>
</clipPath>
<clipPath id="clip2_1729_1056">
<rect width="390.171" height="154" fill="white" transform="translate(0 572)"/>
</clipPath>
</defs>
</svg>
