<svg width="391" height="752" viewBox="0 0 391 752" fill="none" xmlns="http://www.w3.org/2000/svg">
<g clip-path="url(#clip0_1681_1165)">
<rect width="391" height="752" fill="white"/>
<g clip-path="url(#clip1_1681_1165)">
<path d="M461 -6H-6V845H461V-6Z" fill="#C9F1F0"/>
<mask id="mask0_1681_1165" style="mask-type:luminance" maskUnits="userSpaceOnUse" x="-7" y="-7" width="469" height="657">
<path d="M461.142 -6.49194H-6.4917V649.5H461.142V-6.49194Z" fill="white"/>
</mask>
<g mask="url(#mask0_1681_1165)">
<path d="M-17.9634 48.0022L-17.6579 46.5969C83.3414 78.6976 358.882 82.6462 469.1 26.533L479.968 75.2378C360.433 116.931 80.294 105.498 -17.9634 48.0022Z" fill="#B1EEE7"/>
</g>
<mask id="mask1_1681_1165" style="mask-type:luminance" maskUnits="userSpaceOnUse" x="-7" y="-7" width="469" height="657">
<path d="M461.142 -6.49194H-6.4917V649.5H461.142V-6.49194Z" fill="white"/>
</mask>
<g mask="url(#mask1_1681_1165)">
<path d="M-46.3828 245.747L-46.1537 244.326C67.9212 273.104 376.273 278.183 493.991 218.221L506.272 256.279C377.174 302.104 66.5388 300.08 -46.3828 245.747Z" fill="#B1EEE7"/>
</g>
<mask id="mask2_1681_1165" style="mask-type:luminance" maskUnits="userSpaceOnUse" x="-7" y="-7" width="469" height="657">
<path d="M461.142 -6.49194H-6.4917V649.5H461.142V-6.49194Z" fill="white"/>
</mask>
<g mask="url(#mask2_1681_1165)">
<path d="M-53.6919 477.356L-53.3864 475.951C59.0617 510.526 366.757 531.362 487.385 477.494L497.703 516.132C366.428 555.298 56.3045 537.388 -53.6919 477.356Z" fill="#B1EEE7"/>
</g>
<mask id="mask3_1681_1165" style="mask-type:luminance" maskUnits="userSpaceOnUse" x="-7" y="-7" width="469" height="657">
<path d="M461.142 -6.49194H-6.4917V649.5H461.142V-6.49194Z" fill="white"/>
</mask>
<g mask="url(#mask3_1681_1165)">
<path d="M560.362 191.81L560.308 190.367C420.9 205.756 60.8336 165.163 -69.2114 91.9564L-95.1792 138.294C50.5076 198.776 418.371 232.725 560.362 191.81Z" fill="#B1EEE7"/>
</g>
<mask id="mask4_1681_1165" style="mask-type:luminance" maskUnits="userSpaceOnUse" x="-7" y="-7" width="469" height="657">
<path d="M461.142 -6.49194H-6.4917V649.5H461.142V-6.49194Z" fill="white"/>
</mask>
<g mask="url(#mask4_1681_1165)">
<path d="M505.99 415.064L505.875 413.628C387.561 433.211 78.1784 403.547 -36.3394 334.373L-56.3193 381.436C70.9532 437.427 386.683 460.21 505.99 415.064Z" fill="#B1EEE7"/>
</g>
<mask id="mask5_1681_1165" style="mask-type:luminance" maskUnits="userSpaceOnUse" x="-7" y="121" width="469" height="657">
<path d="M461.141 121.508H-6.49219V777.5H461.141V121.508Z" fill="white"/>
</mask>
<g mask="url(#mask5_1681_1165)">
<path d="M96.2409 286.312C94.3926 286.312 92.6283 286.632 90.971 287.19C87.2286 281.485 80.7748 277.712 73.4427 277.712C71.3959 277.712 69.4254 278.01 67.5542 278.56C64.2165 267.363 53.8524 259.198 41.5711 259.198C30.1759 259.198 20.4227 266.232 16.413 276.199C13.335 274.703 9.87519 273.862 6.22443 273.862C-2.50532 273.862 -10.1123 278.666 -14.1068 285.769C-16.6501 283.333 -20.087 281.828 -23.8905 281.828C-31.7038 281.828 -38.043 288.168 -38.043 295.981L110.554 295.461C107.713 290.482 102.374 286.312 96.2409 286.312Z" fill="white"/>
</g>
<mask id="mask6_1681_1165" style="mask-type:luminance" maskUnits="userSpaceOnUse" x="-71" y="113" width="469" height="657">
<path d="M397.141 113.508H-70.4922V769.5H397.141V113.508Z" fill="white"/>
</mask>
<g mask="url(#mask6_1681_1165)">
<path d="M411.569 259.47C410.316 259.47 409.117 259.684 407.987 260.065C405.443 256.193 401.059 253.627 396.08 253.627C394.69 253.627 393.345 253.833 392.078 254.2C389.809 246.593 382.767 241.04 374.419 241.04C366.675 241.04 360.053 245.821 357.327 252.588C355.234 251.573 352.889 251 350.407 251C344.472 251 339.309 254.261 336.59 259.088C334.864 257.431 332.527 256.407 329.946 256.407C324.638 256.407 320.33 260.715 320.33 266.023L421.284 265.671C419.367 262.296 415.731 259.47 411.569 259.47Z" fill="white"/>
</g>
<mask id="mask7_1681_1165" style="mask-type:luminance" maskUnits="userSpaceOnUse" x="-7" y="153" width="469" height="657">
<path d="M461.141 153.508H-6.49219V809.5H461.141V153.508Z" fill="white"/>
</mask>
<g mask="url(#mask7_1681_1165)">
<path d="M193.956 198.799C193.116 198.799 192.314 198.944 191.558 199.196C189.855 196.599 186.922 194.888 183.584 194.888C182.652 194.888 181.759 195.026 180.903 195.27C179.383 190.176 174.671 186.464 169.088 186.464C163.902 186.464 159.472 189.664 157.647 194.193C156.249 193.514 154.676 193.132 153.011 193.132C149.039 193.132 145.58 195.316 143.762 198.547C142.609 197.439 141.043 196.752 139.309 196.752C135.758 196.752 132.871 199.631 132.871 203.191L200.448 202.954C199.172 200.693 196.744 198.799 193.956 198.799Z" fill="white"/>
</g>
<path d="M404.184 340.257C402.274 340.257 400.449 340.585 398.731 341.166C394.858 335.262 388.183 331.367 380.599 331.367C378.483 331.367 376.444 331.672 374.504 332.237C371.052 320.651 360.329 312.204 347.62 312.204C335.828 312.204 325.746 319.482 321.591 329.786C318.406 328.235 314.832 327.364 311.051 327.364C302.016 327.364 294.149 332.329 290.017 339.676C287.39 337.156 283.831 335.598 279.898 335.598C271.809 335.598 265.256 342.151 265.256 350.239L418.978 349.697C416.053 344.564 410.523 340.257 404.184 340.257Z" fill="white"/>
</g>
<mask id="mask8_1681_1165" style="mask-type:luminance" maskUnits="userSpaceOnUse" x="-75" y="-32" width="603" height="844">
<path d="M527.56 -32H-74.0986V812H527.56V-32Z" fill="white"/>
</mask>
<g mask="url(#mask8_1681_1165)">
<path d="M-258.945 356.698C-258.945 356.698 -248.755 314.513 -218.686 314.513C-198.335 314.513 -194.08 317.667 -194.08 317.667C-194.08 317.667 -181.915 283.864 -142.55 287.352C-116.618 289.652 -105.75 311.132 -105.75 311.132C-105.75 311.132 -90.4499 300.019 -69.0772 310.946C-50.2005 320.595 -51.9201 332.171 -51.9201 332.171C-51.9201 332.171 -78.3633 325.509 -93.8302 343.226C-93.8302 343.226 -60.1548 330.363 -40.3641 347.402C-40.3641 347.402 -21.5464 337.792 -3.66209 344.091C14.2222 350.389 55.4052 356.698 55.4052 356.698H-258.945Z" fill="white"/>
<path d="M-117.905 647.072C-86.9124 644.369 -55.5953 644.143 -24.6909 644.242C24.8446 644.389 74.7339 646.374 124.112 641.51C130.047 640.93 135.786 640.291 141.377 639.456C118.432 637.176 96.932 634.199 96.932 634.199C97.1187 628.45 95.0158 623.498 91.3112 619.862C84.6095 613.278 68.8478 612.109 60.2004 618.486C56.6334 601.172 36.1451 582.276 9.93778 591.915C-14.206 600.799 -12.7222 624.795 -12.7222 624.795C-28.7099 625.886 -35.3527 626.072 -53.5907 628.568C-75.7102 631.595 -98.0459 636.135 -117.905 647.062V647.072Z" fill="#71C9B1"/>
<path d="M-112.108 688.49C-120.391 687.596 -151.08 690.21 -158.96 687.508C-172.639 682.811 -190.661 639.476 -177.955 612.099C-163.825 581.647 -119.006 574.414 -93.732 598.165C-89.7915 593.095 -82.8049 590.599 -76.5454 592.014C-70.2859 593.438 -65.068 598.705 -63.7021 604.985C-53.6889 585.754 -29.5943 575.083 -8.62446 580.585C12.3453 586.088 28.0972 607.215 27.3799 628.883C40.6555 619.253 62.038 624.372 69.516 638.965C79.8535 629.05 105.137 627.478 123.503 636.174C146.566 647.101 159.232 663.511 160.136 670.97C88.0783 674.036 17.0522 677.652 -54.9762 671.196C-76.2506 669.289 -90.9019 691.055 -112.108 688.49Z" fill="#26A683"/>
<path d="M-2.29617 -45.2659C-24.7694 -48.7445 -48.1566 -46.1699 -69.3327 -37.8763C-93.7713 -28.3053 -114.8 -11.4725 -132.743 7.67943C-193.795 72.8293 -164.385 146.047 -110.024 195.68C-75.0911 227.577 -21.1533 239.408 25.2967 209.054C56.0242 188.969 73.879 151.019 48.6642 118.984C81.3373 98.8106 96.824 57.893 83.6466 21.0926C70.8328 -14.6759 35.251 -39.4486 -2.29617 -45.2659Z" fill="#71C9B1"/>
<path d="M3.46204 -31.1353C-17.7731 -45.6884 -47.9405 -45.7572 -69.2346 -31.2925C-81.9206 -56.8808 -115.734 -70.579 -144.25 -68.9576C-162.645 -67.9061 -179.439 -61.7056 -194.356 -50.9161C-209.282 -40.1167 -220.661 -18.3706 -218.205 -0.112951C-239.99 -3.27709 -263.171 6.86387 -275.631 25.0135C-291.795 48.5382 -288.808 81.0541 -276.23 106.672C-256.027 147.835 -213.508 175.821 -168.296 183.486C-123.084 191.16 -75.8969 179.929 -35.8637 157.583C-18.5395 147.914 -2.16856 135.847 9.53483 119.82C48.4282 66.5502 28.0284 -14.3025 3.47188 -31.1353H3.46204Z" fill="#26A683"/>
<path d="M-195.967 -96.2458C-195.967 -96.2458 -259.662 -117.451 -289.673 -57.6178C-311.576 -13.9487 -286.273 26.5464 -264.556 36.1469C-228.866 51.9087 -206.874 32.3637 -206.874 32.3637C-206.874 32.3637 -183.271 80.1992 -122.072 90.9691C-13.9798 110.003 24.668 37.1984 24.668 37.1984C24.668 37.1984 50.3152 51.4763 87.4791 45.1185C136.553 36.7169 162.642 -1.47883 158.486 -44.6566C153.71 -94.3002 110.512 -123.446 73.2699 -117.648C73.2699 -117.648 72.2578 -152.473 28.4806 -166.859C17.7894 -170.377 -7.00294 -172.509 -19.3844 -167.242C-19.3844 -167.242 -45.8865 -218.144 -116.274 -206.077C-212.515 -189.568 -195.967 -96.236 -195.967 -96.236V-96.2458Z" fill="#9BE7CD"/>
<path d="M474.388 633.59C474.388 633.59 485.993 611.303 464.532 600.563C448.446 592.515 434.444 602.852 434.444 602.852C434.444 602.852 432.891 571.083 397.614 576.724C362.346 582.364 357.325 610.134 357.325 610.134C357.325 610.134 361.482 609.937 372.546 621.768C372.546 621.768 346.26 610.281 330.184 613.956C314.108 617.641 305.284 633.6 305.284 633.6H474.378L474.388 633.59Z" fill="#26A683"/>
<path d="M551.959 631.627L-85.1831 629.848V777.816L551.959 814.822V631.627Z" fill="white"/>
<path d="M551.959 634.503L-85.1831 646.738V798.734L551.959 827.968V634.503Z" fill="#71C9B1"/>
<path d="M551.959 677.593L-85.1831 695.683V841.735H551.959V677.593Z" fill="#51B89B"/>
<path d="M551.959 716.693L-85.1831 736.955V841.735H551.959V716.693Z" fill="#EDE5D8"/>
<path d="M551.959 723.473L-85.1831 722.48V766.12L551.959 749.032V723.473Z" fill="#85412C"/>
<path d="M551.959 720.844L-85.1831 720.461V734.827H551.959V720.844Z" fill="#725145"/>
<path d="M551.959 731.58L-85.1831 731.197V745.563H551.959V731.58Z" fill="#422C27"/>
</g>
<path d="M179.749 603.102C179.749 603.102 173.818 613.086 171.273 615.983C168.83 618.761 165.334 621.089 159.82 625.352C156.854 627.642 153.377 630.062 150.706 631.775C150.469 631.901 147.645 632.741 145.767 633.386C143.863 634.039 142.279 638.431 141.699 638.756C141.119 639.08 143.764 638.073 145.431 637.397C147.099 636.725 147.046 637.363 148.649 636.954L150.255 636.546C152.351 635.626 161.174 631.863 165.426 629.554C171.38 626.322 177.902 622.444 179.665 620.521C181.429 618.597 189.313 605.923 189.313 605.923L179.746 603.106L179.749 603.102Z" fill="#F5BD9A"/>
<path d="M193.523 590.588C194.611 592.385 194.817 595.282 193.115 600.347C191.413 605.411 186.749 610.312 186.749 610.312C186.749 610.312 183.31 608.541 178.624 604.766C178.624 604.766 182.39 591.866 185.741 589.305C189.092 586.745 191.756 587.672 193.523 590.588Z" fill="#B82819"/>
<path d="M180.658 598.686C180.177 599.923 179.765 601.041 179.448 601.919C181.623 603.648 187.634 607.4 189.6 608.029C190.019 607.548 191.004 606.255 191.58 605.537C189.726 604.419 182.043 600.301 180.658 598.69V598.686Z" fill="#A7A7A6"/>
<path d="M175.891 581.989L182.49 581.619C182.49 581.619 184.795 583.917 189.127 584.909L192.203 599.064C192.203 599.064 183.703 590.275 177.399 593.34L175.887 581.993L175.891 581.989Z" fill="#F5BD9A"/>
<path d="M163.716 582.909C163.716 582.909 164.758 586.97 165.056 588.153C165.354 589.336 164.773 591.66 165.434 592.015C166.09 592.37 168.094 591.324 168.571 591.832C169.048 592.34 170.922 595.477 171.712 595.874C172.502 596.271 176.742 593.393 179.177 592.576C179.177 592.576 180.089 581.527 179.772 581.012C179.456 580.501 176.059 576.738 176.059 576.738C176.059 576.738 171.708 574.139 169.494 575.238C167.281 576.337 163.716 582.913 163.716 582.913V582.909Z" fill="#F5BD9A"/>
<path d="M174.143 581.581C174.124 581.573 172.788 582.653 171.674 581.619C170.54 580.569 169.64 578.501 169.64 578.501C169.64 578.501 166.976 583.012 163.716 582.905C160.457 582.798 158.656 576.387 163.865 573.772C165.369 573.017 167.613 571.601 171.399 572.36C173.063 572.692 174.758 572.417 174.758 572.417C174.758 572.417 178.62 570.307 180.994 575.429C181.49 576.497 181.005 578.127 181.307 579.573C181.608 581.02 182.49 581.615 182.49 581.615C182.49 581.615 179.803 582.684 178.666 582.856C177.528 583.027 176.998 582.634 176.998 581.337C176.998 580.039 175.891 577.993 174.552 578.035C173.212 578.077 173.41 580.97 174.143 581.581Z" fill="#783C2A"/>
<path d="M179.242 577.314C179.601 577.337 178.215 583.634 177.887 585.905L176.746 585.5C176.746 585.5 177.742 580.879 177.62 578.676L179.238 577.31L179.242 577.314Z" fill="#323B47"/>
<path d="M168.953 578.925C168.953 578.925 173.723 584.981 176.75 585.504L177.284 586.97C177.284 586.97 175.536 586.855 172.559 584.523C170.613 583.001 167.464 579.772 167.464 579.772L168.953 578.925Z" fill="#323B47"/>
<path d="M177.891 585.905C177.891 585.905 176.139 593.901 175.437 594.458C174.735 595.015 173.59 595.32 173.59 595.32C173.59 595.32 176.17 590.905 175.948 586.344L176.754 585.504L177.895 585.909L177.891 585.905Z" fill="#323B47"/>
<path d="M182.692 572.936C182.986 573.948 179.853 577.848 178.601 578.57C177.357 579.291 174.116 578.78 172.597 578.913C171.082 579.043 169.14 581.886 168.109 582.508C167.079 583.13 161.396 583.684 160.545 583.214C160.217 583.035 160.037 582.691 159.942 582.352C159.789 581.81 159.854 581.241 159.854 581.241C159.255 570.463 169.781 567.513 171.991 566.487C174.193 565.464 174.521 565.67 174.571 566.364C174.628 567.063 174.964 567.479 176.46 566.929C176.998 566.731 177.429 566.7 177.765 566.784C178.36 566.929 178.647 567.437 178.643 567.994C178.635 568.86 179.605 569.841 180.082 570.49C180.555 571.131 182.402 571.921 182.692 572.933V572.936Z" fill="#323B47"/>
<path d="M165.579 580.203C166.663 579.68 167.793 578.703 169.106 577.581C170.418 576.459 171.075 574.326 169.174 575.036C167.274 575.749 164.873 578.314 164.461 579.612C164.049 580.909 164.587 580.68 165.579 580.203Z" fill="#1D2939"/>
<path d="M171.727 573.52C172.666 573.299 173.697 572.677 174.891 571.971C176.086 571.261 176.876 569.479 175.258 569.681C173.639 569.883 171.388 571.643 170.899 572.723C170.411 573.803 170.872 573.719 171.731 573.52H171.727Z" fill="#1D2939"/>
<path d="M161.85 579.539C161.785 580.333 162.823 579.566 163.312 578.379C163.8 577.192 164.896 575.578 165.369 574.99C165.842 574.402 164.159 575.432 163.365 576.383C162.571 577.333 161.923 578.612 161.85 579.543V579.539Z" fill="#1D2939"/>
<path d="M165.93 572.505C165.556 572.971 165.529 573.345 166.373 573.108C167.212 572.872 169.735 570.387 170.704 569.963C171.674 569.54 168.201 569.662 165.93 572.505Z" fill="#1D2939"/>
<path d="M205.492 703.072L228.593 714.491C229.291 714.846 230.146 714.567 230.501 713.869C230.856 713.17 230.577 712.315 229.879 711.96L206.778 700.541C206.079 700.186 205.224 700.465 204.87 701.163C204.515 701.862 204.793 702.717 205.492 703.072Z" fill="#323B47"/>
<path d="M221.632 714.846L222.002 715.666L225.33 714.159L226.654 714.597L232.665 711.872L232.276 711.014L232.051 710.518L231.902 710.189L221.632 714.846Z" fill="#323B47"/>
<path d="M208.797 648.625C206.648 652.179 200.198 662.319 201.732 668.38C202.263 670.471 212.415 681.333 218.926 693.672C220.529 696.709 225.792 707.037 225.792 707.037L229.307 707.22L231.471 704.487C231.471 704.487 226.208 692.672 224.91 682.317C223.544 671.402 214.472 666.399 214.472 666.399L220.178 656.033L208.797 648.618V648.625Z" fill="#F5BD9A"/>
<path d="M223.311 702.179C224.674 704.842 225.792 707.037 225.792 707.037L229.307 707.22L231.471 704.488C231.471 704.488 230.818 702.74 229.959 699.973C227.803 700.931 225.589 701.69 223.311 702.175V702.179Z" fill="white"/>
<path d="M218.747 625.52C216.117 627.238 205.614 652.694 203.32 658.876C203.32 658.876 207.896 666.605 216.773 664.025C216.773 664.025 233.589 646.152 236.852 640.561C240.119 634.97 241.97 623.948 231.807 614.38C231.807 614.38 223.594 622.353 218.743 625.52H218.747Z" fill="#252B34"/>
<path d="M224.46 704.823C224.46 704.823 227.539 705.373 229.032 704.289C230.524 703.205 230.948 702.381 230.948 702.381L233.68 705.816C233.68 705.816 234.684 708.735 233.413 709.579C230.757 711.334 226.288 714.231 224.059 715.353C220.761 717.013 215.701 717.456 215.701 717.456C214.956 715.929 217.624 713.781 219.479 711.758C221.933 709.086 224.46 704.82 224.46 704.82V704.823Z" fill="#252B34"/>
<path d="M192.779 702.282C192.916 709.254 198.698 714.815 205.671 714.681C212.644 714.544 218.204 708.762 218.071 701.789C217.933 694.817 212.151 689.256 205.179 689.389C198.206 689.527 192.645 695.309 192.779 702.282ZM197.149 696.179C198.378 694.446 200.137 693.114 202.19 692.42C203.137 692.099 204.121 692.805 204.148 693.805L204.243 697.885C204.266 698.843 203.392 699.576 202.454 699.385L198.08 698.496C197.03 698.282 196.527 697.057 197.149 696.183V696.179ZM208.499 692.37C210.503 693.007 212.243 694.255 213.495 695.9C214.143 696.748 213.689 697.988 212.651 698.244L208.487 699.27C207.56 699.499 206.659 698.812 206.636 697.854L206.541 693.832C206.518 692.801 207.514 692.061 208.495 692.374L208.499 692.37ZM213.827 707.72C213.231 708.598 211.938 708.606 211.346 707.724L208.671 703.759C208.091 702.896 208.545 701.721 209.552 701.473L213.739 700.438C214.647 700.213 215.552 700.881 215.571 701.816C215.571 701.824 215.571 701.827 215.571 701.835C215.613 704.01 214.964 706.041 213.827 707.716V707.72ZM208.804 711.605C207.808 711.96 206.739 712.163 205.625 712.182C204.564 712.201 203.537 712.059 202.572 711.773C201.622 711.495 201.202 710.384 201.728 709.544L204.343 705.377C204.915 704.461 206.243 704.438 206.846 705.335L209.556 709.354C210.106 710.166 209.732 711.273 208.804 711.601V711.605ZM197.381 708.212C196.103 706.552 195.324 704.484 195.282 702.236C195.282 702.224 195.282 702.213 195.282 702.198C195.267 701.251 196.149 700.545 197.076 700.732L201.477 701.629C202.499 701.839 202.999 703.003 202.446 703.888L199.82 708.079C199.274 708.953 198.011 709.033 197.385 708.216L197.381 708.212Z" fill="#262C36"/>
<path d="M280.043 694.03C281.669 708.739 271.063 721.982 256.35 723.608" stroke="#5F6770" stroke-width="0.427448" stroke-miterlimit="10"/>
<path d="M227.116 700.343C225.49 685.634 236.096 672.391 250.809 670.765" stroke="#5F6770" stroke-width="0.427448" stroke-miterlimit="10"/>
<path d="M139.802 727.024C125.093 728.65 111.85 718.044 110.224 703.331" stroke="#5F6770" stroke-width="0.427448" stroke-miterlimit="10"/>
<path d="M133.489 674.093C148.198 672.467 161.441 683.073 163.067 697.786" stroke="#5F6770" stroke-width="0.427448" stroke-miterlimit="10"/>
<path d="M115.003 707.426C115.003 707.426 109.217 691.947 122.281 681.489C122.281 681.489 115.434 693.473 115.003 707.426Z" fill="white"/>
<path d="M159.732 699.442C159.732 699.442 161.85 714.594 146.794 720.818C146.794 720.818 156.156 711.766 159.732 699.442Z" fill="white"/>
<path d="M251.95 718.906C251.95 718.906 237.997 721.872 231.997 706.739C231.997 706.739 240.515 715.88 251.95 718.906Z" fill="white"/>
<path d="M257.301 673.807C257.301 673.807 272.563 674.864 275.54 690.882C275.54 690.882 268.617 679.848 257.301 673.807Z" fill="white"/>
<path d="M222.918 642.446L226.471 629.413C226.646 628.776 226.269 628.119 225.631 627.944C224.994 627.768 224.337 628.146 224.162 628.783L220.62 641.771C221.387 641.996 222.151 642.221 222.918 642.443V642.446Z" fill="#323B47"/>
<path d="M205.599 703.949C206.16 703.938 206.713 703.713 207.133 703.274C207.961 702.404 207.927 701.026 207.057 700.198L158.499 653.968C157.629 653.14 156.251 653.175 155.423 654.045C154.595 654.915 154.629 656.293 155.499 657.121L204.057 703.35C204.488 703.762 205.045 703.961 205.599 703.949Z" fill="#F5695E"/>
<path d="M158.308 652.232L218.51 657.277L218.437 652.927L158.358 647.877L158.308 652.232Z" fill="#F5695E"/>
<path d="M160.356 645.738L156.247 645.016L153.556 660.338L157.665 661.059L160.356 645.738Z" fill="#F5695E"/>
<path d="M252.591 697.286L252.602 697.854C252.614 698.377 252.198 698.809 251.675 698.82L248.61 698.881C246.641 698.919 245.248 700.824 245.813 702.713L248.782 712.659C248.855 713.128 249.263 713.472 249.736 713.464C250.29 713.452 250.713 712.975 250.66 712.426L250.095 706.743C249.9 704.804 251.316 703.075 253.255 702.877L253.95 702.804C254.152 702.785 254.354 702.827 254.526 702.93L255.98 704.571C256.556 705.22 257.384 705.59 258.251 705.579H258.304C258.972 705.571 259.426 704.896 259.182 704.274L258.09 701.507L258.819 701.366C259.35 701.263 259.686 700.74 259.56 700.217L259.121 698.389C259.083 698.236 259.01 698.091 258.903 697.973L257.346 696.255C257.14 696.026 256.839 695.916 256.533 695.95L253.43 696.32C252.95 696.377 252.587 696.793 252.599 697.278L252.591 697.286Z" fill="#323B47"/>
<path d="M207.236 690.015L253.404 693.675L258.442 699.034C259.136 699.774 259.411 700.812 259.171 701.801C258.705 703.713 256.557 704.667 254.828 703.728L253.255 702.873L253.148 713.136C253.133 714.59 251.919 715.746 250.465 715.685L205.679 714.678" stroke="#1D2939" stroke-width="0.236623" stroke-miterlimit="10"/>
<path d="M252.998 713.68C253.119 712.355 252.144 711.183 250.819 711.062C249.495 710.941 248.323 711.916 248.201 713.241C248.08 714.565 249.056 715.737 250.38 715.858C251.705 715.98 252.877 715.004 252.998 713.68Z" fill="#323B47"/>
<path d="M203.423 699.812C204.507 698.633 206.343 698.557 207.522 699.641C208.701 700.725 208.778 702.56 207.694 703.74C206.61 704.919 204.774 704.995 203.595 703.911C202.416 702.827 202.339 700.992 203.423 699.812Z" fill="#323B47"/>
<path d="M204.301 700.621C204.938 699.927 206.018 699.885 206.709 700.522C207.404 701.16 207.446 702.24 206.808 702.93C206.171 703.621 205.091 703.667 204.4 703.03C203.706 702.392 203.664 701.312 204.301 700.621Z" fill="#BC3F51"/>
<path d="M161.159 636.474L159.287 636.121L159.696 633.95C159.764 633.586 160.116 633.345 160.48 633.414L161.028 633.517C161.392 633.585 161.632 633.937 161.564 634.301L161.155 636.473L161.159 636.474Z" fill="#323B47"/>
<path d="M100.007 700.205C100.412 720.929 117.54 737.397 138.264 736.993C158.988 736.588 175.456 719.46 175.051 698.736C174.647 678.012 157.518 661.544 136.795 661.949C116.071 662.353 99.6027 679.482 100.007 700.205ZM103.625 700.133C103.259 681.409 118.14 665.929 136.867 665.563C155.591 665.197 171.071 680.077 171.437 698.805C171.803 717.529 156.923 733.008 138.195 733.375C119.471 733.741 103.992 718.861 103.625 700.133Z" fill="#1D2939"/>
<path d="M102.053 700.167C102.438 719.761 118.632 735.333 138.226 734.951C157.819 734.565 173.391 718.372 173.009 698.778C172.624 679.184 156.43 663.613 136.836 663.994C117.242 664.38 101.671 680.573 102.053 700.167ZM107.518 700.06C107.194 683.485 120.368 669.788 136.939 669.46C153.514 669.135 167.212 682.31 167.54 698.881C167.865 715.456 154.69 729.154 138.115 729.482C121.54 729.806 107.842 716.632 107.514 700.06H107.518Z" fill="white"/>
<path d="M215.949 697.935C216.353 718.658 233.482 735.126 254.205 734.722C274.929 734.317 291.397 717.189 290.993 696.465C290.588 675.742 273.46 659.273 252.736 659.678C232.012 660.083 215.544 677.211 215.949 697.935ZM219.567 697.862C219.2 679.138 234.081 663.659 252.808 663.292C271.532 662.926 287.012 677.806 287.378 696.534C287.745 715.258 272.864 730.737 254.137 731.104C235.413 731.47 219.933 716.59 219.567 697.862Z" fill="#1D2939"/>
<path d="M217.995 697.896C218.38 717.49 234.574 733.062 254.167 732.68C273.761 732.295 289.333 716.101 288.951 696.507C288.566 676.913 272.372 661.342 252.778 661.724C233.184 662.109 217.613 678.303 217.995 697.896ZM223.731 697.786C223.41 681.36 236.463 667.784 252.889 667.46C269.315 667.139 282.89 680.192 283.215 696.618C283.535 713.044 270.483 726.619 254.057 726.944C237.631 727.264 224.055 714.212 223.731 697.786Z" fill="white"/>
<path d="M249.443 697.793C249.485 700.026 251.332 701.797 253.561 701.755C255.793 701.713 257.564 699.866 257.522 697.637C257.48 695.404 255.633 693.633 253.404 693.675C251.172 693.717 249.401 695.565 249.443 697.793Z" fill="#323B47"/>
<path d="M156.721 644.614L159.888 645.233L161.346 638.313L161.636 638.344C162.232 638.405 162.762 637.97 162.816 637.374L162.884 636.615C162.934 636.039 162.522 635.531 161.949 635.458L162.033 635.062C162.083 634.806 161.915 634.558 161.659 634.508L159.415 634.069C159.159 634.02 158.911 634.188 158.862 634.443L158.721 635.107L151.023 634.272L150.763 637.164L158.118 637.962L156.717 644.614H156.721Z" fill="#1D2939"/>
<path d="M135.905 700.018C135.913 700.423 136.249 700.747 136.653 700.74C137.058 700.732 137.382 700.396 137.375 699.992C137.367 699.587 137.031 699.263 136.627 699.27C136.222 699.278 135.898 699.614 135.905 700.018Z" fill="#323B47"/>
<path d="M159.793 643.443L157.484 642.992C156.942 642.885 156.419 643.24 156.316 643.778C156.24 643.817 156.175 643.881 156.159 643.973L155.923 645.183C155.896 645.317 155.984 645.446 156.117 645.473L160.125 646.255C160.258 646.282 160.388 646.194 160.415 646.061L160.651 644.851C160.67 644.759 160.636 644.675 160.579 644.61C160.686 644.069 160.331 643.546 159.793 643.439V643.443Z" fill="#323B47"/>
<path d="M150.578 638.419L152.448 638.433C152.686 638.434 152.88 638.243 152.882 638.005L152.914 633.669C152.916 633.431 152.724 633.237 152.486 633.235L150.616 633.221C150.378 633.219 150.183 633.411 150.181 633.649L150.15 637.985C150.148 638.223 150.339 638.417 150.578 638.419Z" fill="#323B47"/>
<path d="M149.557 637.84L150.404 638.065C150.61 638.119 150.812 637.966 150.816 637.752L150.843 633.905C150.843 633.691 150.645 633.535 150.438 633.585L149.591 633.798C149.446 633.833 149.343 633.962 149.343 634.111L149.316 637.523C149.316 637.672 149.416 637.802 149.561 637.84H149.557Z" fill="#323B47"/>
<path d="M153.461 637.867L152.614 638.08C152.407 638.134 152.205 637.974 152.209 637.76L152.236 633.913C152.236 633.699 152.442 633.543 152.648 633.6L153.495 633.825C153.64 633.863 153.739 633.993 153.739 634.142L153.713 637.554C153.713 637.703 153.61 637.832 153.465 637.867H153.461Z" fill="#323B47"/>
<path d="M252.775 697.729C252.782 698.133 253.118 698.457 253.523 698.45C253.927 698.442 254.252 698.106 254.244 697.702C254.236 697.297 253.9 696.973 253.496 696.98C253.091 696.988 252.767 697.324 252.775 697.729Z" fill="#323B47"/>
<path d="M138.027 637.344C138.283 637.271 138.107 637.336 138.027 637.344Z" fill="#323B47"/>
<path d="M223.987 634.478L228.342 634.298C228.811 634.279 229.216 633.962 229.349 633.512L229.944 631.501C230.147 630.814 229.647 630.115 228.929 630.092L222.811 629.89C221.987 629.863 221.426 630.726 221.789 631.466L222.956 633.863C223.147 634.256 223.552 634.497 223.987 634.478Z" fill="#1D2939"/>
<path d="M208.759 627.108C221.678 626.909 227.818 625.085 233.245 624.677C237.68 624.341 237.753 628.562 237.772 629.039C237.795 629.581 237.6 630.112 237.234 630.508L236.696 631.092C235.825 632.039 234.616 632.6 233.329 632.653L227.597 632.89C225.914 632.959 224.246 632.623 222.704 631.943C221.926 631.6 220.933 631.249 219.762 631.028C216.754 630.455 208.843 630.184 208.843 630.184C207.969 630.218 207.236 629.52 207.24 628.635C207.244 627.806 207.931 627.119 208.759 627.104V627.108Z" fill="#323B47"/>
<path d="M132.371 700.892C132.455 702.927 134.173 704.51 136.211 704.426C138.245 704.343 139.829 702.625 139.745 700.587C139.661 698.549 137.943 696.969 135.905 697.053C133.871 697.137 132.287 698.854 132.371 700.892Z" fill="#323B47"/>
<path d="M156.713 665.338C152.202 692.134 136.489 701.591 136.489 701.591L135.294 700.973C145.465 690.134 150.812 677.818 152.755 664.254C155.308 664.891 155.552 665.17 156.713 665.342V665.338Z" fill="#F5695E"/>
<path d="M134.295 700.812C134.337 701.785 135.157 702.545 136.13 702.503C137.104 702.461 137.863 701.64 137.821 700.667C137.779 699.694 136.959 698.935 135.985 698.977C135.012 699.018 134.253 699.839 134.295 700.812Z" fill="#F5695E"/>
<path d="M157.387 659.651L154.128 659.078C153.626 658.99 153.147 659.326 153.059 659.828L152.127 665.136C152.039 665.638 152.374 666.117 152.877 666.205L156.136 666.778C156.638 666.866 157.117 666.53 157.205 666.028L158.137 660.72C158.226 660.218 157.89 659.739 157.387 659.651Z" fill="#1D2939"/>
<path d="M254.484 696.339L219.197 655.701L217.712 657.747L251.458 696L205.442 700.602C204.793 700.667 204.32 701.243 204.385 701.892C204.446 702.507 204.973 702.965 205.579 702.953C205.61 702.953 205.644 702.953 205.675 702.949L253.61 698.156C254.018 698.114 254.377 697.866 254.557 697.496C254.736 697.125 254.709 696.69 254.484 696.343V696.339Z" fill="#F5695E"/>
<path d="M205.587 703.247C206.224 703.236 206.804 702.808 206.98 702.159L223.284 642.366C223.498 641.58 223.036 640.771 222.25 640.557C221.464 640.344 220.654 640.805 220.441 641.592L204.137 701.385C203.923 702.171 204.385 702.98 205.171 703.194C205.312 703.232 205.45 703.247 205.587 703.247Z" fill="#F5695E"/>
<path d="M220.716 642.901L222.884 643.336C223.716 643.504 224.525 642.966 224.693 642.134C224.861 641.302 224.322 640.492 223.49 640.325L221.323 639.889C220.491 639.722 219.682 640.26 219.514 641.092C219.346 641.924 219.884 642.733 220.716 642.901Z" fill="#323B47"/>
<path d="M149.564 652.106L149.576 649.16L143.435 649.141C141.481 649.133 140.286 647.832 139.817 646.614C139.252 645.141 139.592 643.649 140.725 642.614C141.134 642.244 141.599 641.966 142.118 641.779C145.133 640.706 147.175 638.905 148.358 637.58C148.927 636.943 149.767 636.569 150.66 636.55L151.534 636.535L151.476 633.588L150.602 633.604C148.893 633.638 147.274 634.371 146.16 635.615C145.206 636.684 143.561 638.138 141.13 639C140.241 639.317 139.439 639.798 138.741 640.431C136.703 642.286 136.058 645.057 137.061 647.667C138.092 650.343 140.584 652.076 143.42 652.083L149.557 652.102L149.564 652.106Z" fill="#323B47"/>
<path d="M202.381 701.82C202.415 703.572 203.866 704.968 205.617 704.934C207.369 704.9 208.766 703.449 208.732 701.698C208.697 699.946 207.247 698.549 205.495 698.583C203.743 698.618 202.347 700.068 202.381 701.82Z" fill="#1D2939"/>
<path d="M195.76 631.596H191.447C191.447 631.596 177.418 637.08 176.731 639.126C176.044 641.172 184.158 669.807 185.039 673.127C185.921 676.448 187.829 684.825 187.829 684.825L191.394 686.611L193.966 681.825C193.966 681.825 192.951 675.001 194.214 664.643C195.474 654.285 190.367 646.919 190.367 646.919L207.679 641.828L195.76 631.6V631.596Z" fill="#F5BD9A"/>
<path d="M193.684 678.596C192.199 679.26 190.68 679.841 189.016 680.092C188.268 680.207 187.528 680.268 186.791 680.302C187.367 682.775 187.837 684.821 187.837 684.821L191.401 686.607L193.974 681.821C193.974 681.821 193.806 680.665 193.691 678.593L193.684 678.596Z" fill="white"/>
<path d="M215.915 622.425C213.079 623.776 191.252 631.249 185.287 634.058C185.287 634.058 184.146 642.359 192.29 646.732C192.29 646.732 221.842 643.733 227.959 641.611C236.959 638.493 241.668 629.596 238.253 620.731C238.253 620.731 234.127 614.597 231.005 615.158C225.62 616.124 220.441 620.265 215.911 622.425H215.915Z" fill="#344054"/>
<path d="M187.039 682.798C187.039 682.798 189.951 684.02 191.657 683.279C193.363 682.539 193.966 681.821 193.966 681.821C193.966 681.821 195.668 685.222 196.18 686.386C196.561 687.252 196.596 689.634 193.691 690.393C190.55 691.214 186.054 693.233 183.753 693.809C180.143 694.717 175.063 694.038 175.063 694.038C174.666 692.37 178.341 690.107 180.612 688.527C183.616 686.439 187.043 682.798 187.043 682.798H187.039Z" fill="#344054"/>
<path d="M186.611 694.13L204.85 702.927C205.556 703.262 206.404 702.965 206.739 702.259C207.075 701.553 206.778 700.705 206.071 700.369L187.832 691.572C187.126 691.237 186.279 691.534 185.943 692.24C185.607 692.946 185.905 693.794 186.611 694.13Z" fill="#323B47"/>
<path d="M181.547 694.362L181.825 695.221L185.299 694.091L186.569 694.675L192.844 692.633L192.55 691.737L192.386 691.221L192.271 690.878L181.547 694.362Z" fill="#323B47"/>
<path d="M236.963 618.074C236.26 618.517 237.985 619.967 232.112 621.494C223.051 623.856 212.281 623.738 212.281 623.738C212.281 623.738 210.102 618.212 205.297 615.361C203.164 614.094 200.343 612.46 197.527 610.678C195.157 609.174 192.806 607.556 190.886 605.961C189.955 605.182 189.119 604.415 188.44 603.663C184.719 599.534 182.986 594.923 182.986 594.923C184.974 590.512 185.489 583.501 185.489 583.501C185.489 583.501 187.459 583.451 194.664 584.294C201.103 585.05 206.27 588.641 214.319 596.011C219.017 600.316 236.966 618.07 236.966 618.07L236.963 618.074Z" fill="#F5695E"/>
<path d="M207.782 617.25C213.77 614.147 222.849 604.205 222.849 604.205C219.544 600.98 216.476 598.019 214.724 596.389C214.69 596.71 214.579 597.045 214.342 597.385C210.335 603.19 205.778 608.243 200.729 612.647C202.404 613.655 203.981 614.578 205.294 615.357C206.221 615.907 207.045 616.555 207.778 617.246L207.782 617.25Z" fill="white"/>
<path d="M197.523 610.678C195.153 609.174 192.802 607.556 190.882 605.961C192.302 601.976 193.474 597.923 194.214 593.82C196.287 599.209 197.302 604.888 197.519 610.678H197.523Z" fill="#B82819"/>
<path d="M193.038 604.919L182.535 601.827C182.535 601.827 177.898 611.296 175.104 614.471C172.421 617.517 166.715 621.551 160.655 626.222C156.514 629.417 151.434 632.863 148.469 634.619C149.152 635.603 149.514 637.485 150.159 638.496C152.461 637.489 162.147 633.359 166.815 630.829C173.352 627.283 180.512 623.032 182.447 620.921C184.382 618.815 193.038 604.915 193.038 604.915V604.919Z" fill="#F5BD9A"/>
<path d="M197.656 588.107C198.851 590.076 199.08 593.256 197.21 598.809C195.34 604.365 189.489 610.93 189.489 610.93C189.489 610.93 185.543 608.735 180.398 604.594C180.398 604.594 185.436 589.508 189.115 586.699C192.794 583.89 195.717 584.905 197.656 588.103V588.107Z" fill="#F5695E"/>
<path d="M182.298 599.381C181.817 600.618 181.405 601.736 181.088 602.614C183.264 604.342 189.275 608.094 191.24 608.724C191.66 608.243 192.645 606.949 193.221 606.232C191.366 605.113 183.684 600.995 182.298 599.385V599.381Z" fill="white"/>
<path d="M150.671 633.256C150.492 633.371 147.324 634.313 145.236 635.031C143.149 635.748 140.825 639.107 140.191 639.462C139.557 639.817 141.893 639.157 143.725 638.42C145.557 637.683 146.641 639.389 148.404 638.943L150.167 638.496L153.759 635.512L150.675 633.256H150.671Z" fill="#F5BD9A"/>
</g>
<defs>
<clipPath id="clip0_1681_1165">
<rect width="391" height="752" fill="white"/>
</clipPath>
<clipPath id="clip1_1681_1165">
<rect width="455" height="845" fill="white"/>
</clipPath>
</defs>
</svg>
