<svg width="390" height="752" viewBox="0 0 390 752" fill="none" xmlns="http://www.w3.org/2000/svg">
<g clip-path="url(#clip0_1708_1056)">
<rect width="390" height="752" fill="white"/>
<g clip-path="url(#clip1_1708_1056)">
<path d="M461 -6H-6V845H461V-6Z" fill="#C9F1F0"/>
<mask id="mask0_1708_1056" style="mask-type:luminance" maskUnits="userSpaceOnUse" x="-7" y="-7" width="469" height="657">
<path d="M461.142 -6.49194H-6.4917V649.5H461.142V-6.49194Z" fill="white"/>
</mask>
<g mask="url(#mask0_1708_1056)">
<path d="M-17.9634 48.0022L-17.6579 46.5969C83.3414 78.6976 358.882 82.6462 469.1 26.533L479.968 75.2378C360.433 116.931 80.294 105.498 -17.9634 48.0022Z" fill="#B1EEE7"/>
</g>
<mask id="mask1_1708_1056" style="mask-type:luminance" maskUnits="userSpaceOnUse" x="-7" y="-7" width="469" height="657">
<path d="M461.142 -6.49194H-6.4917V649.5H461.142V-6.49194Z" fill="white"/>
</mask>
<g mask="url(#mask1_1708_1056)">
<path d="M-46.3828 245.747L-46.1537 244.326C67.9212 273.104 376.273 278.183 493.991 218.221L506.272 256.279C377.174 302.104 66.5388 300.08 -46.3828 245.747Z" fill="#B1EEE7"/>
</g>
<mask id="mask2_1708_1056" style="mask-type:luminance" maskUnits="userSpaceOnUse" x="-7" y="-7" width="469" height="657">
<path d="M461.142 -6.49194H-6.4917V649.5H461.142V-6.49194Z" fill="white"/>
</mask>
<g mask="url(#mask2_1708_1056)">
<path d="M-53.6919 477.356L-53.3864 475.951C59.0617 510.526 366.757 531.362 487.385 477.494L497.703 516.132C366.428 555.298 56.3045 537.388 -53.6919 477.356Z" fill="#B1EEE7"/>
</g>
<mask id="mask3_1708_1056" style="mask-type:luminance" maskUnits="userSpaceOnUse" x="-7" y="-7" width="469" height="657">
<path d="M461.142 -6.49194H-6.4917V649.5H461.142V-6.49194Z" fill="white"/>
</mask>
<g mask="url(#mask3_1708_1056)">
<path d="M560.362 191.81L560.308 190.367C420.9 205.756 60.8336 165.163 -69.2114 91.9564L-95.1792 138.294C50.5076 198.776 418.371 232.725 560.362 191.81Z" fill="#B1EEE7"/>
</g>
<mask id="mask4_1708_1056" style="mask-type:luminance" maskUnits="userSpaceOnUse" x="-7" y="-7" width="469" height="657">
<path d="M461.142 -6.49194H-6.4917V649.5H461.142V-6.49194Z" fill="white"/>
</mask>
<g mask="url(#mask4_1708_1056)">
<path d="M505.99 415.064L505.875 413.628C387.561 433.211 78.1784 403.547 -36.3394 334.373L-56.3193 381.436C70.9532 437.427 386.683 460.21 505.99 415.064Z" fill="#B1EEE7"/>
</g>
<mask id="mask5_1708_1056" style="mask-type:luminance" maskUnits="userSpaceOnUse" x="-7" y="121" width="469" height="657">
<path d="M461.141 121.508H-6.49219V777.5H461.141V121.508Z" fill="white"/>
</mask>
<g mask="url(#mask5_1708_1056)">
<path d="M96.2409 286.312C94.3926 286.312 92.6283 286.632 90.971 287.19C87.2286 281.485 80.7748 277.712 73.4427 277.712C71.3959 277.712 69.4254 278.01 67.5542 278.56C64.2165 267.363 53.8524 259.198 41.5711 259.198C30.1759 259.198 20.4227 266.232 16.413 276.199C13.335 274.703 9.87519 273.862 6.22443 273.862C-2.50532 273.862 -10.1123 278.666 -14.1068 285.769C-16.6501 283.333 -20.087 281.828 -23.8905 281.828C-31.7038 281.828 -38.043 288.168 -38.043 295.981L110.554 295.461C107.713 290.482 102.374 286.312 96.2409 286.312Z" fill="white"/>
</g>
<mask id="mask6_1708_1056" style="mask-type:luminance" maskUnits="userSpaceOnUse" x="-71" y="113" width="469" height="657">
<path d="M397.141 113.508H-70.4922V769.5H397.141V113.508Z" fill="white"/>
</mask>
<g mask="url(#mask6_1708_1056)">
<path d="M411.569 259.47C410.316 259.47 409.117 259.684 407.987 260.065C405.443 256.193 401.059 253.627 396.08 253.627C394.69 253.627 393.345 253.833 392.078 254.2C389.809 246.593 382.767 241.04 374.419 241.04C366.675 241.04 360.053 245.821 357.327 252.588C355.234 251.573 352.889 251 350.407 251C344.472 251 339.309 254.261 336.59 259.088C334.864 257.431 332.527 256.407 329.946 256.407C324.638 256.407 320.33 260.715 320.33 266.023L421.284 265.671C419.367 262.296 415.731 259.47 411.569 259.47Z" fill="white"/>
</g>
<mask id="mask7_1708_1056" style="mask-type:luminance" maskUnits="userSpaceOnUse" x="-7" y="153" width="469" height="657">
<path d="M461.141 153.508H-6.49219V809.5H461.141V153.508Z" fill="white"/>
</mask>
<g mask="url(#mask7_1708_1056)">
<path d="M193.956 198.799C193.116 198.799 192.314 198.944 191.558 199.196C189.855 196.599 186.922 194.888 183.584 194.888C182.652 194.888 181.759 195.026 180.903 195.27C179.383 190.176 174.671 186.464 169.088 186.464C163.902 186.464 159.472 189.664 157.647 194.193C156.249 193.514 154.676 193.132 153.011 193.132C149.039 193.132 145.58 195.316 143.762 198.547C142.609 197.439 141.043 196.752 139.309 196.752C135.758 196.752 132.871 199.631 132.871 203.191L200.448 202.954C199.172 200.693 196.744 198.799 193.956 198.799Z" fill="white"/>
</g>
<path d="M404.183 340.257C402.274 340.257 400.449 340.585 398.73 341.166C394.858 335.262 388.183 331.367 380.599 331.367C378.483 331.367 376.444 331.672 374.504 332.237C371.052 320.651 360.328 312.204 347.62 312.204C335.827 312.204 325.745 319.482 321.591 329.786C318.406 328.235 314.831 327.364 311.051 327.364C302.016 327.364 294.149 332.329 290.017 339.676C287.39 337.156 283.83 335.598 279.897 335.598C271.809 335.598 265.256 342.151 265.256 350.239L418.977 349.697C416.052 344.564 410.523 340.257 404.183 340.257Z" fill="white"/>
</g>
<mask id="mask8_1708_1056" style="mask-type:luminance" maskUnits="userSpaceOnUse" x="-115" y="-32" width="603" height="844">
<path d="M487.56 -32H-114.099V812H487.56V-32Z" fill="white"/>
</mask>
<g mask="url(#mask8_1708_1056)">
<path d="M354.046 637.373C354.95 632.499 354.517 627.468 352.198 623.144C348.15 615.587 337.409 611.991 330.776 617.287C333.744 606.714 327.494 594.47 317.511 590.461C307.537 586.452 295.204 590.736 289.171 599.826C283.933 607.726 283.589 618.516 287.628 627.114C281.772 620.402 266.658 617.012 257.019 622.594C251.191 625.964 247.624 631.634 246.308 637.363H354.036L354.046 637.373Z" fill="#71C9B1"/>
<path d="M345.408 521.872C347.649 519.848 350.597 518.59 353.623 518.56C358.959 518.511 363.411 522.255 365.504 526.982C367.705 531.944 365.258 537.978 360.983 541.053C356.778 544.08 350.626 544.06 346.44 541.014C342.254 537.968 340.338 532.121 341.92 527.188C342.578 525.134 343.816 523.307 345.408 521.872Z" fill="#26A683"/>
<path d="M298.516 516.703C302.742 513.893 308.696 513.971 312.853 516.88C315.428 511.869 322.139 509.265 327.76 509.667C331.386 509.923 334.678 511.2 337.586 513.372C340.495 515.544 342.677 519.867 342.146 523.464C346.45 522.904 351 524.967 353.397 528.583C356.512 533.271 355.834 539.678 353.279 544.689C349.172 552.747 340.711 558.142 331.769 559.527C322.827 560.913 313.551 558.554 305.719 554.034C302.329 552.079 299.135 549.652 296.875 546.458C289.358 535.835 293.613 519.946 298.506 516.703H298.516Z" fill="#26A683"/>
<path d="M326.944 528.829C326.669 531.315 324.9 556.078 325.45 574.827C326.001 593.576 328.949 641.284 328.949 641.284C328.949 641.284 319.79 642.109 317.854 641.284C317.854 641.284 322.139 611.873 321.864 586.727C321.589 561.591 323.662 524.908 323.662 524.908L326.934 528.819L326.944 528.829Z" fill="#422C27"/>
<path d="M337.793 550.448C338.549 559.115 336.889 573.333 330.953 578.463C325.018 583.592 323.996 586.924 323.996 586.924V578.257C323.996 578.257 329.892 577.313 333.086 570.729C336.289 564.136 336.378 550.841 336.378 550.841L337.783 550.448H337.793Z" fill="#422C27"/>
<path d="M348.552 507.535C348.552 507.535 361.18 503.536 366.918 515.426C371.114 524.103 366.004 532.013 361.691 533.85C354.606 536.857 350.321 532.937 350.321 532.937C350.321 532.937 345.526 542.301 333.43 544.247C312.057 547.686 304.638 533.212 304.638 533.212C304.638 533.212 299.538 535.953 292.227 534.587C282.567 532.789 277.536 525.174 278.48 516.674C279.57 506.896 288.169 501.276 295.499 502.523C295.499 502.523 306.937 477.279 333.145 485.632C351.491 491.488 348.543 507.525 348.543 507.525L348.552 507.535Z" fill="#9BE7CD"/>
<path d="M34.973 529.433C32.7325 527.409 29.7846 526.151 26.758 526.122C21.4222 526.073 16.9708 529.816 14.8778 534.543C12.6767 539.505 15.1234 545.539 19.398 548.615C23.6037 551.641 29.7551 551.621 33.9412 548.575C38.1273 545.529 40.0435 539.682 38.4615 534.749C37.8031 532.696 36.5649 530.868 34.973 529.433Z" fill="#26A683"/>
<path d="M81.8652 524.264C77.6398 521.454 71.6849 521.533 67.5283 524.441C64.9537 519.43 58.2422 516.826 52.6215 517.229C48.9955 517.484 45.7036 518.761 42.795 520.933C39.8863 523.105 37.7048 527.429 38.2354 531.025C33.9314 530.465 29.3817 532.528 26.9841 536.145C23.869 540.832 24.5471 547.239 27.102 552.25C31.2095 560.308 39.6701 565.703 48.6122 567.088C57.5544 568.474 66.8306 566.116 74.6624 561.595C78.0525 559.64 81.2461 557.213 83.5062 554.019C91.0235 543.397 86.7687 527.507 81.8751 524.264H81.8652Z" fill="#26A683"/>
<path d="M53.4373 536.39C53.7125 538.876 55.4812 563.639 54.9309 582.388C54.3806 601.137 51.4327 648.845 51.4327 648.845C51.4327 648.845 60.591 649.67 62.5269 648.845C62.5269 648.845 58.2425 619.434 58.5176 594.288C58.7928 569.152 56.7193 532.47 56.7193 532.47L53.4472 536.38L53.4373 536.39Z" fill="#422C27"/>
<path d="M42.5888 558.009C41.8321 566.676 43.4928 580.895 49.4281 586.024C55.3633 591.154 56.3853 594.485 56.3853 594.485V585.818C56.3853 585.818 50.4893 584.874 47.2957 578.291C44.0923 571.697 44.0038 558.402 44.0038 558.402L42.5986 558.009H42.5888Z" fill="#422C27"/>
<path d="M31.8289 515.096C31.8289 515.096 19.2018 511.097 13.4631 522.987C9.26715 531.664 14.3769 539.574 18.6907 541.412C25.7757 544.419 30.06 540.498 30.06 540.498C30.06 540.498 34.8554 549.862 46.9518 551.808C68.3245 555.247 75.7436 540.773 75.7436 540.773C75.7436 540.773 80.8435 543.514 88.1544 542.149C97.8139 540.35 102.845 532.735 101.902 524.235C100.811 514.457 92.2128 508.837 84.8822 510.085C84.8822 510.085 73.4442 484.84 47.2368 493.193C28.8907 499.049 31.8386 515.086 31.8386 515.086L31.8289 515.096Z" fill="#9BE7CD"/>
<path d="M197.041 510.935C199.282 508.91 202.23 507.653 205.256 507.623C210.592 507.574 215.043 511.318 217.136 516.044C219.338 521.007 216.891 527.04 212.616 530.116C208.41 533.143 202.259 533.123 198.073 530.077C193.887 527.03 191.971 521.184 193.553 516.251C194.211 514.197 195.449 512.369 197.041 510.935Z" fill="#26A683"/>
<path d="M150.149 505.766C154.374 502.955 160.329 503.034 164.486 505.943C167.06 500.931 173.772 498.327 179.393 498.73C183.019 498.986 186.311 500.263 189.219 502.435C192.128 504.606 194.309 508.93 193.779 512.526C198.083 511.966 202.632 514.03 205.03 517.646C208.145 522.333 207.467 528.74 204.912 533.752C200.805 541.809 192.344 547.204 183.402 548.59C174.46 549.975 165.184 547.617 157.352 543.097C153.962 541.141 150.768 538.714 148.508 535.521C140.991 524.898 145.245 509.009 150.139 505.766H150.149Z" fill="#26A683"/>
<path d="M178.577 517.892C178.302 520.378 176.533 545.141 177.083 563.89C177.634 582.639 180.581 630.347 180.581 630.347C180.581 630.347 171.423 631.172 169.487 630.347C169.487 630.347 173.772 600.936 173.497 575.79C173.221 550.653 175.295 513.971 175.295 513.971L178.567 517.882L178.577 517.892Z" fill="#422C27"/>
<path d="M189.425 539.51C190.182 548.177 188.521 562.396 182.586 567.526C176.651 572.655 175.629 575.986 175.629 575.986V567.319C175.629 567.319 181.525 566.376 184.718 559.792C187.922 553.198 188.01 539.903 188.01 539.903L189.416 539.51H189.425Z" fill="#422C27"/>
<path d="M200.185 496.598C200.185 496.598 212.812 492.598 218.551 504.488C222.747 513.165 217.637 521.076 213.323 522.913C206.239 525.92 201.954 521.999 201.954 521.999C201.954 521.999 197.159 531.364 185.062 533.31C163.69 536.749 156.271 522.274 156.271 522.274C156.271 522.274 151.171 525.016 143.86 523.65C134.2 521.852 129.169 514.236 130.112 505.736C131.203 495.959 139.801 490.338 147.132 491.586C147.132 491.586 158.57 466.342 184.777 474.694C203.123 480.551 200.176 496.588 200.176 496.588L200.185 496.598Z" fill="#9BE7CD"/>
<path d="M417.652 445.54C410.833 444.586 403.758 445.471 397.38 448.075C390.02 451.082 383.731 456.27 378.386 462.146C360.187 482.143 369.424 504.184 386.099 518.973C396.82 528.475 413.211 531.816 427.135 522.422C436.352 516.202 441.59 504.636 433.807 495.046C443.614 488.796 448.115 476.336 443.968 465.252C439.929 454.482 429.041 447.131 417.652 445.54Z" fill="#71C9B1"/>
<path d="M347.472 457.724C344.032 454.619 339.502 452.683 334.854 452.644C326.659 452.565 319.82 458.324 316.606 465.576C313.236 473.191 316.98 482.458 323.554 487.175C330.01 491.813 339.453 491.793 345.88 487.116C352.316 482.438 355.244 473.466 352.827 465.89C351.815 462.746 349.918 459.935 347.472 457.724Z" fill="#26A683"/>
<path d="M419.461 449.794C412.965 445.481 403.827 445.599 397.449 450.07C393.489 442.375 383.191 438.386 374.563 438.995C369.001 439.398 363.941 441.344 359.47 444.685C354.999 448.016 351.648 454.659 352.473 460.171C345.86 459.307 338.893 462.48 335.198 468.032C330.413 475.225 331.454 485.062 335.375 492.766C341.674 505.137 354.674 513.421 368.402 515.544C382.13 517.666 396.368 514.06 408.386 507.113C413.584 504.106 418.498 500.381 421.966 495.478C433.503 479.176 426.968 454.786 419.461 449.794Z" fill="#26A683"/>
<path d="M375.821 468.416C376.243 472.228 378.956 510.247 378.11 539.039C377.265 567.831 372.735 641.068 372.735 641.068C372.735 641.068 386.797 642.335 389.765 641.068C389.765 641.068 383.191 595.915 383.613 557.316C384.036 518.718 380.852 462.412 380.852 462.412L375.831 468.416H375.821Z" fill="#422C27"/>
<path d="M359.155 501.6C357.996 514.905 360.55 536.74 369.65 544.62C378.759 552.491 380.331 557.611 380.331 557.611V544.306C380.331 544.306 371.281 542.861 366.368 532.74C361.455 522.619 361.307 502.199 361.307 502.199L359.155 501.6Z" fill="#422C27"/>
<path d="M402.431 464.888C403.591 478.193 401.036 500.028 391.936 507.908C382.827 515.78 381.255 520.899 381.255 520.899V507.594C381.255 507.594 390.305 506.15 395.218 496.028C400.132 485.907 400.279 465.487 400.279 465.487L402.431 464.888Z" fill="#422C27"/>
<path d="M342.647 435.723C342.647 435.723 323.269 429.581 314.444 447.839C308.008 461.164 315.85 473.309 322.463 476.12C333.341 480.738 339.915 474.715 339.915 474.715C339.915 474.715 347.275 489.091 365.857 492.088C398.677 497.365 410.057 475.147 410.057 475.147C410.057 475.147 417.888 479.353 429.11 477.26C443.929 474.498 451.662 462.815 450.208 449.755C448.537 434.74 435.33 426.113 424.079 428.029C424.079 428.029 423.617 417.485 410.302 413.328C407.05 412.316 399.532 411.776 395.808 413.427C395.808 413.427 387.554 398.127 366.299 402.097C337.232 407.521 342.656 435.713 342.656 435.713L342.647 435.723Z" fill="#9BE7CD"/>
<path d="M-37.271 453.101C-30.4514 452.148 -23.3763 453.032 -16.9989 455.636C-9.63881 458.643 -3.34988 463.831 1.99575 469.708C20.1945 489.705 10.9576 511.745 -5.71805 526.534C-16.4388 536.037 -32.8294 539.378 -46.7536 529.983C-55.9709 523.763 -61.2084 512.197 -53.4258 502.607C-63.2327 496.357 -67.7332 483.897 -63.5865 472.813C-59.5478 462.043 -48.6599 454.693 -37.271 453.101Z" fill="#71C9B1"/>
<path d="M32.9103 465.286C36.3496 462.18 40.8797 460.245 45.5276 460.205C53.7229 460.127 60.5621 465.885 63.7754 473.137C67.1459 480.753 63.4021 490.019 56.8281 494.736C50.3721 499.374 40.9288 499.354 34.5022 494.677C28.0659 489.999 25.1375 481.028 27.5549 473.451C28.567 470.307 30.4635 467.497 32.9103 465.286Z" fill="#26A683"/>
<path d="M-39.0792 457.356C-32.5839 453.042 -23.4452 453.16 -17.0678 457.631C-13.1077 449.937 -2.80953 445.947 5.81815 446.556C11.38 446.959 16.4406 448.905 20.9117 452.246C25.3827 455.577 28.7336 462.22 27.9082 467.732C34.5214 466.868 41.4884 470.042 45.1832 475.594C49.9687 482.787 48.9271 492.623 45.0063 500.327C38.7075 512.699 25.7071 520.982 11.9794 523.105C-1.74825 525.227 -15.9869 521.621 -28.0047 514.674C-33.203 511.667 -38.1162 507.943 -41.585 503.039C-53.1213 486.737 -46.5867 462.347 -39.0792 457.356Z" fill="#26A683"/>
<path d="M4.56051 475.977C4.13797 479.79 1.42584 517.808 2.27092 546.6C3.116 575.392 7.646 648.629 7.646 648.629C7.646 648.629 -6.41571 649.896 -9.38332 648.629C-9.38332 648.629 -2.80943 603.476 -3.23197 564.877C-3.65451 526.279 -0.470721 469.973 -0.470721 469.973L4.55068 475.977H4.56051Z" fill="#422C27"/>
<path d="M21.2262 509.161C22.3857 522.466 19.8309 544.301 10.7315 552.182C1.62231 560.053 0.0500722 565.172 0.0500722 565.172V551.867C0.0500722 551.867 9.10032 550.423 14.0136 540.301C18.9268 530.18 19.0742 509.76 19.0742 509.76L21.2262 509.161Z" fill="#422C27"/>
<path d="M37.7347 443.284C37.7347 443.284 57.1126 437.142 65.9369 455.4C72.3732 468.725 64.5317 480.87 57.9184 483.681C47.0405 488.299 40.4665 482.276 40.4665 482.276C40.4665 482.276 33.1064 496.652 14.5245 499.649C-18.2961 504.926 -29.6752 482.708 -29.6752 482.708C-29.6752 482.708 -37.507 486.914 -48.7288 484.821C-63.5472 482.059 -71.2807 470.376 -69.8264 457.316C-68.1558 442.301 -54.949 433.674 -43.6977 435.59C-43.6977 435.59 -43.2358 425.046 -29.9209 420.889C-26.6683 419.877 -19.151 419.337 -15.4267 420.988C-15.4267 420.988 -7.17243 405.688 14.0823 409.658C43.1492 415.082 37.725 443.274 37.725 443.274L37.7347 443.284Z" fill="#9BE7CD"/>
<path d="M306.213 -19.3386C328.686 -22.8172 352.073 -20.2427 373.249 -11.9491C397.688 -2.37805 418.717 14.4548 436.66 33.6067C497.712 98.7565 468.301 171.974 413.941 221.608C379.008 253.505 325.07 265.336 278.62 234.982C247.892 214.896 230.037 176.946 255.252 144.912C222.579 124.738 207.093 83.8202 220.27 47.0199C233.084 11.2513 268.666 -13.5213 306.213 -19.3386Z" fill="#71C9B1"/>
<path d="M300.454 -5.20804C321.689 -19.7611 351.857 -19.8299 373.151 -5.36527C385.837 -30.9535 419.65 -44.6517 448.166 -43.0303C466.562 -41.9789 483.355 -35.7784 498.272 -24.9888C513.198 -14.1895 524.577 7.55662 522.121 25.8143C543.906 22.6502 567.087 32.7911 579.547 50.9407C595.711 74.4654 592.724 106.981 580.146 132.599C559.943 173.762 517.424 201.748 472.212 209.413C427 217.088 379.813 205.856 339.78 183.51C322.456 173.841 306.085 161.774 294.381 145.747C255.488 92.4774 275.888 11.6248 300.444 -5.20804H300.454Z" fill="#26A683"/>
<path d="M499.883 -70.3186C499.883 -70.3186 563.579 -91.5242 593.589 -31.6905C615.492 11.9786 590.189 52.4737 568.473 62.0742C532.783 77.8359 510.791 58.291 510.791 58.291C510.791 58.291 487.188 106.126 425.988 116.896C317.896 135.93 279.249 63.1256 279.249 63.1256C279.249 63.1256 253.601 77.4035 216.437 71.0458C167.364 62.6441 141.274 24.4484 145.431 -18.7293C150.207 -68.3729 193.404 -97.5184 230.647 -91.7207C230.647 -91.7207 231.659 -126.546 275.436 -140.932C286.127 -144.45 310.919 -146.582 323.301 -141.315C323.301 -141.315 349.803 -192.217 420.19 -180.15C516.431 -163.641 499.883 -70.3087 499.883 -70.3087V-70.3186Z" fill="#9BE7CD"/>
<path d="M298.388 633.59C298.388 633.59 309.993 611.303 288.532 600.563C272.446 592.515 258.444 602.852 258.444 602.852C258.444 602.852 256.891 571.083 221.614 576.724C186.346 582.364 181.325 610.134 181.325 610.134C181.325 610.134 185.482 609.937 196.546 621.768C196.546 621.768 170.26 610.281 154.184 613.956C138.108 617.641 129.284 633.6 129.284 633.6H298.378L298.388 633.59Z" fill="#26A683"/>
<path d="M415.959 631.627L-221.183 629.848V777.816L415.959 814.823V631.627Z" fill="white"/>
<path d="M415.959 634.504L-221.183 646.738V798.734L415.959 827.968V634.504Z" fill="#71C9B1"/>
<path d="M415.959 677.593L-221.183 695.683V841.735H415.959V677.593Z" fill="#51B89B"/>
<path d="M415.959 716.693L-221.183 736.955V841.735H415.959V716.693Z" fill="#EDE5D8"/>
<path d="M415.959 723.473L-221.183 722.48V766.12L415.959 749.032V723.473Z" fill="#85412C"/>
<path d="M415.959 715.844L-221.183 715.461V729.827H415.959V715.844Z" fill="#725145"/>
<path d="M416 726.693L-221 726V752H416V726.693Z" fill="#422C27"/>
</g>
</g>
<defs>
<clipPath id="clip0_1708_1056">
<rect width="390" height="752" fill="white"/>
</clipPath>
<clipPath id="clip1_1708_1056">
<rect width="455" height="845" fill="white"/>
</clipPath>
</defs>
</svg>
