<svg width="408" height="752" viewBox="0 0 408 752" fill="none" xmlns="http://www.w3.org/2000/svg">
<g clip-path="url(#clip0_1679_968)">
<rect width="408" height="752" fill="white"/>
<g clip-path="url(#clip1_1679_968)">
<path d="M461 -6H-6V845H461V-6Z" fill="#C9F1F0"/>
<mask id="mask0_1679_968" style="mask-type:luminance" maskUnits="userSpaceOnUse" x="-7" y="-7" width="469" height="657">
<path d="M461.142 -6.49194H-6.4917V649.5H461.142V-6.49194Z" fill="white"/>
</mask>
<g mask="url(#mask0_1679_968)">
<path d="M-17.9634 48.0022L-17.6579 46.5969C83.3414 78.6976 358.882 82.6462 469.1 26.533L479.968 75.2378C360.433 116.931 80.294 105.498 -17.9634 48.0022Z" fill="#B1EEE7"/>
</g>
<mask id="mask1_1679_968" style="mask-type:luminance" maskUnits="userSpaceOnUse" x="-7" y="-7" width="469" height="657">
<path d="M461.142 -6.49194H-6.4917V649.5H461.142V-6.49194Z" fill="white"/>
</mask>
<g mask="url(#mask1_1679_968)">
<path d="M-46.3828 245.747L-46.1537 244.326C67.9212 273.104 376.273 278.183 493.991 218.221L506.272 256.279C377.174 302.104 66.5388 300.08 -46.3828 245.747Z" fill="#B1EEE7"/>
</g>
<mask id="mask2_1679_968" style="mask-type:luminance" maskUnits="userSpaceOnUse" x="-7" y="-7" width="469" height="657">
<path d="M461.142 -6.49194H-6.4917V649.5H461.142V-6.49194Z" fill="white"/>
</mask>
<g mask="url(#mask2_1679_968)">
<path d="M-53.6919 477.356L-53.3864 475.951C59.0617 510.526 366.757 531.362 487.385 477.494L497.703 516.132C366.428 555.298 56.3045 537.388 -53.6919 477.356Z" fill="#B1EEE7"/>
</g>
<mask id="mask3_1679_968" style="mask-type:luminance" maskUnits="userSpaceOnUse" x="-7" y="-7" width="469" height="657">
<path d="M461.142 -6.49194H-6.4917V649.5H461.142V-6.49194Z" fill="white"/>
</mask>
<g mask="url(#mask3_1679_968)">
<path d="M560.362 191.81L560.308 190.367C420.9 205.756 60.8336 165.163 -69.2114 91.9564L-95.1792 138.294C50.5076 198.776 418.371 232.725 560.362 191.81Z" fill="#B1EEE7"/>
</g>
<mask id="mask4_1679_968" style="mask-type:luminance" maskUnits="userSpaceOnUse" x="-7" y="-7" width="469" height="657">
<path d="M461.142 -6.49194H-6.4917V649.5H461.142V-6.49194Z" fill="white"/>
</mask>
<g mask="url(#mask4_1679_968)">
<path d="M505.99 415.064L505.875 413.628C387.561 433.211 78.1784 403.547 -36.3394 334.373L-56.3193 381.436C70.9532 437.427 386.683 460.21 505.99 415.064Z" fill="#B1EEE7"/>
</g>
<mask id="mask5_1679_968" style="mask-type:luminance" maskUnits="userSpaceOnUse" x="-7" y="121" width="469" height="657">
<path d="M461.141 121.508H-6.49219V777.5H461.141V121.508Z" fill="white"/>
</mask>
<g mask="url(#mask5_1679_968)">
<path d="M96.2409 286.312C94.3926 286.312 92.6283 286.632 90.971 287.19C87.2286 281.485 80.7748 277.712 73.4427 277.712C71.3959 277.712 69.4254 278.01 67.5542 278.56C64.2165 267.363 53.8524 259.198 41.5711 259.198C30.1759 259.198 20.4227 266.232 16.413 276.199C13.335 274.703 9.87519 273.862 6.22443 273.862C-2.50532 273.862 -10.1123 278.666 -14.1068 285.769C-16.6501 283.333 -20.087 281.828 -23.8905 281.828C-31.7038 281.828 -38.043 288.168 -38.043 295.981L110.554 295.461C107.713 290.482 102.374 286.312 96.2409 286.312Z" fill="white"/>
</g>
<mask id="mask6_1679_968" style="mask-type:luminance" maskUnits="userSpaceOnUse" x="-71" y="113" width="469" height="657">
<path d="M397.141 113.508H-70.4922V769.5H397.141V113.508Z" fill="white"/>
</mask>
<g mask="url(#mask6_1679_968)">
<path d="M411.569 259.47C410.316 259.47 409.117 259.684 407.987 260.065C405.443 256.193 401.059 253.627 396.08 253.627C394.69 253.627 393.345 253.833 392.078 254.2C389.809 246.593 382.767 241.04 374.419 241.04C366.675 241.04 360.053 245.821 357.327 252.588C355.234 251.573 352.889 251 350.407 251C344.472 251 339.309 254.261 336.59 259.088C334.864 257.431 332.527 256.407 329.946 256.407C324.638 256.407 320.33 260.715 320.33 266.023L421.284 265.671C419.367 262.296 415.731 259.47 411.569 259.47Z" fill="white"/>
</g>
<mask id="mask7_1679_968" style="mask-type:luminance" maskUnits="userSpaceOnUse" x="-7" y="153" width="469" height="657">
<path d="M461.141 153.508H-6.49219V809.5H461.141V153.508Z" fill="white"/>
</mask>
<g mask="url(#mask7_1679_968)">
<path d="M193.956 198.799C193.116 198.799 192.314 198.944 191.558 199.196C189.855 196.599 186.922 194.888 183.584 194.888C182.652 194.888 181.759 195.026 180.903 195.27C179.383 190.176 174.671 186.464 169.088 186.464C163.902 186.464 159.472 189.664 157.647 194.193C156.249 193.514 154.676 193.132 153.011 193.132C149.039 193.132 145.58 195.316 143.762 198.547C142.609 197.439 141.043 196.752 139.309 196.752C135.758 196.752 132.871 199.631 132.871 203.191L200.448 202.954C199.172 200.693 196.744 198.799 193.956 198.799Z" fill="white"/>
</g>
<path d="M404.184 340.257C402.274 340.257 400.449 340.585 398.731 341.166C394.858 335.262 388.183 331.367 380.599 331.367C378.483 331.367 376.444 331.672 374.504 332.237C371.052 320.651 360.329 312.204 347.62 312.204C335.828 312.204 325.746 319.482 321.591 329.786C318.406 328.235 314.832 327.364 311.051 327.364C302.016 327.364 294.149 332.329 290.017 339.676C287.39 337.156 283.831 335.598 279.898 335.598C271.809 335.598 265.256 342.151 265.256 350.239L418.978 349.697C416.053 344.564 410.523 340.257 404.184 340.257Z" fill="white"/>
</g>
<mask id="mask8_1679_968" style="mask-type:luminance" maskUnits="userSpaceOnUse" x="-123" y="-32" width="603" height="844">
<path d="M479.56 -32H-122.099V812H479.56V-32Z" fill="white"/>
</mask>
<g mask="url(#mask8_1679_968)">
<path d="M346.046 637.373C346.95 632.499 346.517 627.468 344.198 623.144C340.15 615.587 329.409 611.991 322.776 617.287C325.744 606.714 319.494 594.47 309.511 590.461C299.537 586.452 287.204 590.736 281.171 599.826C275.933 607.726 275.589 618.516 279.628 627.114C273.772 620.402 258.658 617.012 249.019 622.594C243.191 625.964 239.624 631.634 238.308 637.363H346.036L346.046 637.373Z" fill="#71C9B1"/>
<path d="M337.409 521.872C339.649 519.848 342.597 518.59 345.624 518.56C350.96 518.511 355.411 522.255 357.504 526.982C359.705 531.944 357.258 537.978 352.984 541.053C348.778 544.08 342.627 544.06 338.441 541.014C334.255 537.968 332.338 532.121 333.92 527.188C334.579 525.134 335.817 523.307 337.409 521.872Z" fill="#26A683"/>
<path d="M290.517 516.703C294.742 513.893 300.697 513.971 304.854 516.88C307.428 511.868 314.14 509.264 319.76 509.667C323.386 509.923 326.678 511.2 329.587 513.372C332.496 515.544 334.677 519.867 334.146 523.464C338.45 522.904 343 524.967 345.398 528.583C348.513 533.271 347.835 539.678 345.28 544.689C341.172 552.747 332.712 558.142 323.77 559.527C314.827 560.913 305.551 558.554 297.719 554.034C294.329 552.079 291.136 549.651 288.876 546.458C281.358 535.835 285.613 519.946 290.507 516.703H290.517Z" fill="#26A683"/>
<path d="M318.945 528.829C318.669 531.315 316.901 556.078 317.451 574.827C318.001 593.576 320.949 641.284 320.949 641.284C320.949 641.284 311.791 642.109 309.855 641.284C309.855 641.284 314.139 611.873 313.864 586.727C313.589 561.591 315.662 524.908 315.662 524.908L318.935 528.819L318.945 528.829Z" fill="#422C27"/>
<path d="M329.793 550.448C330.55 559.115 328.889 573.333 322.954 578.463C317.019 583.592 315.997 586.924 315.997 586.924V578.257C315.997 578.257 321.892 577.313 325.086 570.729C328.29 564.136 328.378 550.841 328.378 550.841L329.783 550.448H329.793Z" fill="#422C27"/>
<path d="M340.553 507.535C340.553 507.535 353.18 503.536 358.919 515.426C363.115 524.102 358.005 532.013 353.691 533.85C346.606 536.857 342.322 532.937 342.322 532.937C342.322 532.937 337.526 542.301 325.43 544.247C304.057 547.686 296.638 533.212 296.638 533.212C296.638 533.212 291.538 535.953 284.227 534.587C274.568 532.789 269.537 525.174 270.48 516.674C271.571 506.896 280.169 501.275 287.5 502.523C287.5 502.523 298.938 477.279 325.145 485.632C343.491 491.488 340.543 507.525 340.543 507.525L340.553 507.535Z" fill="#9BE7CD"/>
<path d="M409.653 445.54C402.833 444.586 395.758 445.471 389.381 448.075C382.021 451.082 375.732 456.27 370.386 462.146C352.187 482.143 361.424 504.184 378.1 518.973C388.821 528.475 405.211 531.816 419.135 522.422C428.353 516.202 433.59 504.636 425.808 495.046C435.615 488.796 440.115 476.336 435.968 465.252C431.93 454.482 421.042 447.131 409.653 445.54Z" fill="#71C9B1"/>
<path d="M339.472 457.724C336.032 454.619 331.502 452.683 326.854 452.644C318.659 452.565 311.82 458.324 308.606 465.576C305.236 473.191 308.98 482.458 315.554 487.174C322.01 491.813 331.453 491.793 337.88 487.115C344.316 482.438 347.244 473.466 344.827 465.89C343.815 462.746 341.918 459.935 339.472 457.724Z" fill="#26A683"/>
<path d="M411.461 449.794C404.966 445.481 395.827 445.598 389.45 450.07C385.49 442.375 375.191 438.386 366.564 438.995C361.002 439.398 355.941 441.344 351.47 444.685C346.999 448.016 343.648 454.659 344.474 460.171C337.86 459.306 330.893 462.48 327.199 468.032C322.413 475.225 323.455 485.062 327.376 492.766C333.674 505.137 346.675 513.421 360.402 515.544C374.13 517.666 388.369 514.06 400.387 507.112C405.585 504.106 410.498 500.381 413.967 495.478C425.503 479.176 418.969 454.786 411.461 449.794Z" fill="#26A683"/>
<path d="M367.821 468.416C368.244 472.228 370.956 510.247 370.111 539.039C369.266 567.831 364.736 641.068 364.736 641.068C364.736 641.068 378.798 642.335 381.765 641.068C381.765 641.068 375.191 595.915 375.614 557.316C376.036 518.718 372.853 462.412 372.853 462.412L367.831 468.416H367.821Z" fill="#422C27"/>
<path d="M351.156 501.6C349.996 514.905 352.551 536.739 361.65 544.62C370.76 552.491 372.332 557.611 372.332 557.611V544.306C372.332 544.306 363.282 542.861 358.368 532.74C353.455 522.619 353.308 502.199 353.308 502.199L351.156 501.6Z" fill="#422C27"/>
<path d="M394.432 464.888C395.591 478.193 393.036 500.028 383.937 507.908C374.828 515.779 373.255 520.899 373.255 520.899V507.594C373.255 507.594 382.306 506.15 387.219 496.028C392.132 485.907 392.28 465.487 392.28 465.487L394.432 464.888Z" fill="#422C27"/>
<path d="M334.647 435.723C334.647 435.723 315.269 429.581 306.445 447.839C300.009 461.164 307.85 473.309 314.463 476.12C325.341 480.738 331.915 474.714 331.915 474.714C331.915 474.714 339.275 489.091 357.857 492.088C390.678 497.365 402.057 475.147 402.057 475.147C402.057 475.147 409.889 479.353 421.111 477.26C435.929 474.498 443.663 462.815 442.208 449.755C440.538 434.74 427.331 426.112 416.08 428.029C416.08 428.029 415.618 417.485 402.303 413.328C399.05 412.316 391.533 411.776 387.809 413.426C387.809 413.426 379.554 398.127 358.299 402.096C329.233 407.521 334.657 435.713 334.657 435.713L334.647 435.723Z" fill="#9BE7CD"/>
<path d="M-42.2962 -45.2659C-64.7694 -48.7445 -88.1566 -46.1699 -109.333 -37.8763C-133.771 -28.3053 -154.8 -11.4725 -172.743 7.67943C-233.795 72.8293 -204.385 146.047 -150.024 195.68C-115.091 227.577 -61.1533 239.408 -14.7033 209.054C16.0242 188.969 33.879 151.019 8.66416 118.984C41.3373 98.8106 56.824 57.893 43.6466 21.0926C30.8328 -14.6759 -4.74903 -39.4486 -42.2962 -45.2659Z" fill="#71C9B1"/>
<path d="M-36.538 -31.1353C-57.7731 -45.6884 -87.9405 -45.7572 -109.235 -31.2925C-121.921 -56.8808 -155.734 -70.579 -184.25 -68.9576C-202.645 -67.9061 -219.439 -61.7056 -234.356 -50.9161C-249.282 -40.1167 -260.661 -18.3706 -258.205 -0.112951C-279.99 -3.27709 -303.171 6.86387 -315.631 25.0135C-331.795 48.5382 -328.808 81.0541 -316.23 106.672C-296.027 147.835 -253.508 175.821 -208.296 183.486C-163.084 191.16 -115.897 179.929 -75.8637 157.583C-58.5395 147.914 -42.1686 135.847 -30.4652 119.82C8.4282 66.5502 -11.9716 -14.3025 -36.5281 -31.1353H-36.538Z" fill="#26A683"/>
<path d="M-235.967 -96.2458C-235.967 -96.2458 -299.662 -117.451 -329.673 -57.6178C-351.576 -13.9487 -326.273 26.5464 -304.556 36.1469C-268.866 51.9087 -246.874 32.3637 -246.874 32.3637C-246.874 32.3637 -223.271 80.1992 -162.072 90.9691C-53.9798 110.003 -15.332 37.1984 -15.332 37.1984C-15.332 37.1984 10.3152 51.4763 47.4791 45.1185C96.5527 36.7169 122.642 -1.47883 118.486 -44.6566C113.71 -94.3002 70.5125 -123.446 33.2699 -117.648C33.2699 -117.648 32.2578 -152.473 -11.5194 -166.859C-22.2106 -170.377 -47.0029 -172.509 -59.3844 -167.242C-59.3844 -167.242 -85.8865 -218.144 -156.274 -206.077C-252.515 -189.568 -235.967 -96.236 -235.967 -96.236V-96.2458Z" fill="#9BE7CD"/>
<path d="M290.388 633.59C290.388 633.59 301.993 611.303 280.532 600.563C264.446 592.515 250.444 602.852 250.444 602.852C250.444 602.852 248.891 571.083 213.614 576.724C178.346 582.364 173.325 610.134 173.325 610.134C173.325 610.134 177.482 609.937 188.546 621.768C188.546 621.768 162.26 610.281 146.184 613.956C130.108 617.641 121.284 633.6 121.284 633.6H290.378L290.388 633.59Z" fill="#26A683"/>
<path d="M407.959 631.627L-229.183 629.848V777.816L407.959 814.822V631.627Z" fill="white"/>
<path d="M407.959 634.503L-229.183 646.738V798.734L407.959 827.968V634.503Z" fill="#71C9B1"/>
<path d="M407.959 677.593L-229.183 695.683V841.735H407.959V677.593Z" fill="#51B89B"/>
<path d="M407.959 716.693L-229.183 736.955V841.735H407.959V716.693Z" fill="#EDE5D8"/>
<path d="M407.959 723.473L-229.183 722.48V766.12L407.959 749.032V723.473Z" fill="#85412C"/>
<path d="M407.959 715.844L-229.183 715.461V729.827H407.959V715.844Z" fill="#725145"/>
<path d="M408 726.693L-229 726V752H408V726.693Z" fill="#422C27"/>
</g>
<path d="M302.854 633.46C302.804 636.76 305.434 639.48 308.734 639.53C312.034 639.58 314.754 636.95 314.804 633.65C314.854 630.35 312.224 627.63 308.924 627.58C305.624 627.53 302.904 630.16 302.854 633.46Z" fill="#F5BD9A"/>
<path d="M303.084 635.18L298.244 622.34L304.224 620.09L308.544 630.8L303.084 635.18Z" fill="#F5BD9A"/>
<path d="M298.474 628.88L309.614 624.65L290.184 585.16L280.074 569.67C278.154 567 274.434 566.38 271.754 568.3C269.084 570.22 268.464 573.94 270.384 576.62L285.354 598.39L298.464 628.88H298.474Z" fill="#FDB337"/>
<path d="M275.013 572.57H274.203C272.003 572.57 270.224 570.78 270.224 568.59V549.99H279.854V567.74C279.854 570.41 277.683 572.58 275.013 572.58V572.57Z" fill="#F5BD9A"/>
<path d="M274.244 560.68C274.244 560.68 274.814 565.58 270.224 567.14V563.88L274.244 560.68Z" fill="#F5BD9A"/>
<path d="M263.054 549.98C263.054 555.76 267.734 560.44 273.514 560.44C279.294 560.44 283.974 555.76 283.974 549.98C283.974 544.2 279.294 539.52 273.514 539.52C267.734 539.52 263.054 544.2 263.054 549.98Z" fill="#F5BD9A"/>
<path d="M269.874 564.8C272.614 564.8 274.844 562.58 274.844 559.83V549.81H263.054V557.97C263.054 561.74 266.104 564.79 269.874 564.79V564.8Z" fill="#F5BD9A"/>
<path d="M263.353 552.32L261.073 555.69C260.753 556.24 261.173 556.91 261.833 556.91L264.483 557.41L263.353 552.32Z" fill="#F5BD9A"/>
<mask id="mask9_1679_968" style="mask-type:luminance" maskUnits="userSpaceOnUse" x="263" y="539" width="21" height="22">
<path d="M263.054 549.98C263.054 555.76 267.734 560.44 273.514 560.44C279.294 560.44 283.974 555.76 283.974 549.98C283.974 544.2 279.294 539.52 273.514 539.52C267.734 539.52 263.054 544.2 263.054 549.98Z" fill="white"/>
</mask>
<g mask="url(#mask9_1679_968)">
<path d="M272.484 554.54C272.484 554.54 269.084 551.24 271.034 545.89C271.034 545.89 263.524 546.75 261.914 544.16C261.914 544.16 268.224 531.34 279.864 537.65C291.504 543.96 286.164 557.24 286.164 557.24L276.554 560L272.504 554.54H272.484Z" fill="#1D2939"/>
</g>
<path d="M271.903 554.51C271.903 556.1 273.193 557.38 274.783 557.38C276.373 557.38 277.663 556.09 277.663 554.51C277.663 552.93 276.373 551.63 274.783 551.63C273.193 551.63 271.903 552.92 271.903 554.51Z" fill="#F5BD9A"/>
<path d="M280.104 556.15L279.854 561.14C279.854 561.14 274.454 562.36 274.454 557.39L277.664 557.97L280.104 556.15Z" fill="#1D2939"/>
<path d="M272.244 549.24C271.704 549.24 267.144 548.7 268.944 545.07C270.384 542.17 273.514 544.49 273.514 544.49L272.244 549.23V549.24Z" fill="#1D2939"/>
<path d="M268.943 546.17C268.943 546.17 259.003 548.83 259.933 541.18C259.933 541.18 261.423 541.83 262.723 541.64C262.723 541.64 262.063 538.89 265.483 538C265.483 538 265.103 542.05 268.943 540.26V546.18V546.17Z" fill="#1D2939"/>
<path d="M282.283 544.28C282.203 544.26 283.973 540.58 279.023 538.83C275.003 537.4 268.433 539.62 265.463 542.72C263.023 545.28 277.263 543.91 277.263 543.91L282.273 544.27L282.283 544.28Z" fill="#1D2939"/>
<path d="M282.284 544.28C282.284 544.28 286.034 545.23 285.554 549.53C285.104 553.63 283.144 558.33 279.844 561.13L279.224 545.51L282.274 544.28H282.284Z" fill="#1D2939"/>
<path d="M281.784 571.53V565.9C281.784 565.9 270.234 563.89 266.004 569.5L272.254 577.25L281.784 571.53Z" fill="#FDC85E"/>
<path d="M259.334 710.99L257.654 721.85L249.884 719.07L251.504 709L259.334 710.99Z" fill="#F5BD9A"/>
<path d="M263.173 619.05L253.843 665.5L248.313 711.96L261.623 715.47L270.043 667.85L284.083 633.52C284.923 632.07 285.743 630.55 286.433 628.98C287.753 626.01 288.343 622.77 288.313 619.52L288.253 613.08L263.163 619.04L263.173 619.05Z" fill="#1D2939"/>
<path d="M259.194 718.88C259.094 718.37 258.524 718.09 258.064 718.34C257.164 718.83 255.604 719.34 253.534 718.81C251.384 718.26 250.754 716.99 250.584 716.14C250.494 715.69 250.064 715.39 249.614 715.51L242.044 718.58C241.174 718.8 233.714 719.92 233.254 720.69C232.824 721.41 233.274 722.34 234.104 722.46L257.134 725.7C258.044 725.83 258.864 725.17 258.944 724.26L259.334 719.78C259.334 719.71 259.334 719.63 259.324 719.56L259.194 718.89V718.88Z" fill="#1D2939"/>
<path d="M314.754 698.7L320.724 705.81L313.924 710.31L308.094 703.29L314.754 698.7Z" fill="#F5BD9A"/>
<path d="M263.174 619.05L273.034 662.8C273.914 667.61 275.614 672.22 278.054 676.46L308.194 707.44L318.644 699.52L291.904 664.76L283.604 622.19L263.174 619.07V619.05Z" fill="#1D2939"/>
<path d="M263.174 619.05V613.09H288.264C288.264 613.09 291.824 625.2 284.084 634.63L263.174 619.05Z" fill="#1D2939"/>
<path d="M319.944 703.14C319.454 702.96 318.924 703.31 318.904 703.83C318.854 704.85 318.494 706.45 316.974 707.96C315.394 709.52 313.984 709.41 313.164 709.11C312.734 708.95 312.254 709.17 312.124 709.61L310.854 717.68C310.594 718.54 307.714 725.52 308.144 726.31C308.544 727.05 309.564 727.15 310.104 726.49L324.734 708.41C325.314 707.7 325.174 706.65 324.434 706.11L320.794 703.47C320.734 703.43 320.664 703.39 320.594 703.37L319.954 703.14H319.944Z" fill="#1D2939"/>
<path d="M259.483 626C277.273 630.94 293.713 624.23 293.713 624.23L289.943 583.93C289.083 574.96 285.283 567.74 279.853 567.74C269.823 568.62 261.913 583.94 262.063 588.49L259.483 626Z" fill="#FDC85E"/>
<path d="M234.544 628.51C231.524 629.85 230.174 633.39 231.524 636.4C232.864 639.42 236.404 640.77 239.414 639.42C242.434 638.08 243.784 634.54 242.434 631.53C241.094 628.51 237.554 627.16 234.544 628.51Z" fill="#F5BD9A"/>
<path d="M233.083 629.44L242.684 619.64L247.244 624.12L239.354 632.55L233.083 629.44Z" fill="#F5BD9A"/>
<path d="M236.854 622.61L245.384 630.93L269.984 608.06L282.784 580.95C284.404 578.08 283.384 574.45 280.514 572.83C277.644 571.22 274.014 572.23 272.394 575.1L260.364 600.85L236.844 622.6L236.854 622.61Z" fill="#FDC85E"/>
<path d="M288.334 626.1C288.334 626.1 275.004 629.45 261.664 626.54" stroke="#FDB337" stroke-width="0.55" stroke-linecap="round" stroke-linejoin="round"/>
<path d="M261.664 615.8L269.984 608.07L276.594 594.38" stroke="#FDB337" stroke-width="0.55" stroke-linecap="round" stroke-linejoin="round"/>
<path d="M270.594 578.96L261.664 598.08H262.724" stroke="#FDB337" stroke-width="0.55" stroke-linecap="round" stroke-linejoin="round"/>
<path d="M86.8117 605.394C84.0217 605.134 81.5417 607.194 81.2817 609.984C81.0217 612.774 83.0817 615.254 85.8717 615.514C88.6617 615.774 91.1417 613.714 91.4017 610.924C91.6617 608.134 89.6017 605.654 86.8117 605.394Z" fill="#F5BD9A"/>
<path d="M86.0818 609.324L97.2818 606.064L98.8018 611.284L89.4418 614.244L86.0818 609.324Z" fill="#F5BD9A"/>
<path d="M114.851 596.333L118.572 605.388L96.5863 614.423L92.8651 605.368L114.851 596.333Z" fill="#FDB337"/>
<path d="M153.452 634.214C154.072 636.954 156.782 638.674 159.522 638.054C162.262 637.434 163.982 634.724 163.362 631.984C162.742 629.244 160.032 627.524 157.292 628.144C154.552 628.764 152.832 631.474 153.452 634.214Z" fill="#F5BD9A"/>
<path d="M154.722 633.474L148.162 623.834L152.662 620.784L158.362 628.764L154.722 633.474Z" fill="#F5BD9A"/>
<path d="M116.452 572.324C116.452 572.324 112.472 572.394 109.352 580.654L105.982 585.194C104.572 586.854 104.012 589.194 104.472 591.424C105.222 595.024 107.922 599.914 107.822 600.224C107.672 600.714 107.152 614.054 107.152 614.054L127.612 613.114C127.612 613.114 138.012 578.344 124.012 573.064L116.442 572.314L116.452 572.324Z" fill="#FDC85E"/>
<path d="M145.462 707.184L151.832 716.834L158.162 713.724L150.992 703.014L145.462 707.184Z" fill="#F5BD9A"/>
<path d="M126.002 624.824L136.512 670.344L153.872 704.314L145.612 710.424L122.352 674.804L114.272 657.034L126.002 624.824Z" fill="#1D2939"/>
<path d="M102.992 706.484L101.212 724.764L108.142 726.104L109.922 706.484H102.992Z" fill="#F5BD9A"/>
<path d="M107.142 613.124L100.242 716.644H110.622L125.372 637.024C125.372 637.024 132.212 625.864 127.622 613.124H107.142Z" fill="#1D2939"/>
<path d="M109.292 722.504C109.132 722.114 108.642 721.974 108.312 722.244C107.672 722.764 106.512 723.414 104.772 723.304C102.972 723.194 101.712 722.284 101.442 721.624C101.302 721.274 100.912 721.104 100.572 721.264L90.322 726.334C89.662 726.644 89.1621 727.194 88.9121 727.884C88.6821 728.524 89.1721 729.194 89.8621 729.164L108.682 728.234C109.422 728.194 109.982 727.544 109.902 726.814L109.532 723.194C109.532 723.134 109.512 723.074 109.492 723.014L109.282 722.504H109.292Z" fill="#1D2939"/>
<path d="M158.302 712.444C157.982 712.164 157.482 712.274 157.312 712.664C156.982 713.424 156.242 714.524 154.652 715.224C153.002 715.944 151.462 715.714 150.922 715.244C150.642 715.004 150.222 715.024 149.992 715.324L143.182 724.514C142.742 725.084 142.542 725.814 142.632 726.534C142.722 727.214 143.462 727.584 144.052 727.244L160.382 717.834C161.022 717.464 161.222 716.634 160.822 716.004L158.842 712.954C158.812 712.904 158.772 712.854 158.722 712.814L158.302 712.454V712.444Z" fill="#1D2939"/>
<path d="M125.892 562.164C125.892 562.164 130.822 561.934 131.352 564.284C131.352 564.284 126.982 565.724 125.892 562.164Z" fill="#F5695E"/>
<path d="M126.051 562.224C126.051 562.224 127.891 566.144 126.011 567.634C126.011 567.634 123.321 564.754 126.051 562.224Z" fill="#F5695E"/>
<path d="M125.182 546.214C125.182 546.214 129.062 537.684 135.172 542.444C139.692 545.964 137.582 553.974 129.232 553.224L125.182 546.214Z" fill="#1D2939"/>
<path d="M110.082 557.594C110.082 557.594 106.752 550.374 112.182 546.554C117.802 542.594 124.822 543.994 128.652 549.574C132.482 555.154 127.742 561.864 127.742 561.864L125.342 556.404L123.182 552.134L119.562 550.114L116.542 549.934H113.962L111.802 550.524L110.072 557.584L110.082 557.594Z" fill="#1D2939"/>
<path d="M115.212 561.544H122.982V572.904H115.212V561.544Z" fill="#F5BD9A"/>
<path d="M122.982 566.774C122.982 566.774 121.932 570.044 118.302 570.474C117.172 570.604 116.012 570.144 115.462 569.144C115.312 568.874 115.212 568.574 115.212 568.254C115.212 566.964 118.832 565.184 118.832 565.184L122.982 566.774Z" fill="#F5BD9A"/>
<path d="M117.742 568.644C122.312 568.644 126.012 564.944 126.012 560.374V556.254C126.012 551.684 122.312 547.984 117.742 547.984C113.172 547.984 109.472 551.684 109.472 556.254V560.374C109.472 564.944 113.172 568.644 117.742 568.644Z" fill="#F5BD9A"/>
<path d="M125.212 559.034C125.212 559.034 112.982 556.384 112.802 550.204C112.802 550.204 118.722 546.874 122.982 551.744C127.242 556.624 125.212 559.034 125.212 559.034Z" fill="#1D2939"/>
<path d="M125.902 559.644C125.902 559.644 123.952 550.144 115.452 550.494C115.452 550.494 110.632 550.714 109.472 557.424C109.472 557.424 107.642 546.284 118.602 547.544C128.272 548.664 125.892 559.734 125.902 559.644Z" fill="#F5695E"/>
<path d="M123.842 560.144C123.842 561.644 125.062 562.864 126.562 562.864C128.062 562.864 129.282 561.644 129.282 560.144C129.282 558.644 128.062 557.424 126.562 557.424C125.062 557.424 123.842 558.644 123.842 560.144Z" fill="#F5BD9A"/>
<path d="M122.232 557.424L123.922 561.334L124.742 558.124L122.232 557.424Z" fill="#1D2939"/>
<path d="M122.982 572.904L112.222 578.274C112.222 578.274 114.212 572.324 116.882 571.704C120.212 570.934 122.982 572.914 122.982 572.914V572.904Z" fill="#F5BD9A"/>
<path d="M127.646 575.508L158.467 625.489L150.134 630.628L119.313 580.646L127.646 575.508Z" fill="#FDC85E"/>
</g>
<defs>
<clipPath id="clip0_1679_968">
<rect width="408" height="752" fill="white"/>
</clipPath>
<clipPath id="clip1_1679_968">
<rect width="455" height="845" fill="white"/>
</clipPath>
</defs>
</svg>
